<svg xmlns="http://www.w3.org/2000/svg" xmlns:xlink="http://www.w3.org/1999/xlink" contentStyleType="text/css" data-diagram-type="SEQUENCE" height="465px" preserveAspectRatio="none" style="width:683px;height:465px;background:#FFFFFF;" version="1.1" viewBox="0 0 683 465" width="683px" zoomAndPan="magnify"><defs/><g><g><title>COBS</title><rect fill="#000000" fill-opacity="0.00000" height="394.125" width="8" x="160.5879" y="36.2969"/><line style="stroke:#181818;stroke-width:0.5;stroke-dasharray:5.0,5.0;" x1="163.9448" x2="163.9448" y1="36.2969" y2="430.4219"/></g><g><title>Windowed</title><rect fill="#000000" fill-opacity="0.00000" height="394.125" width="8" x="287.5088" y="36.2969"/><line style="stroke:#181818;stroke-width:0.5;stroke-dasharray:5.0,5.0;" x1="291.0049" x2="291.0049" y1="36.2969" y2="430.4219"/></g><g><title>Application</title><rect fill="#000000" fill-opacity="0.00000" height="394.125" width="8" x="390.0737" y="36.2969"/><line style="stroke:#181818;stroke-width:0.5;stroke-dasharray:5.0,5.0;" x1="393.9619" x2="393.9619" y1="36.2969" y2="430.4219"/></g><g class="participant participant-head" data-participant="COBS"><rect fill="#E2E2F0" height="30.2969" rx="2.5" ry="2.5" style="stroke:#181818;stroke-width:0.5;" width="53.2861" x="137.9448" y="5"/><text fill="#000000" font-family="sans-serif" font-size="14" lengthAdjust="spacing" textLength="39.2861" x="144.9448" y="24.9951">COBS</text></g><g class="participant participant-tail" data-participant="COBS"><rect fill="#E2E2F0" height="30.2969" rx="2.5" ry="2.5" style="stroke:#181818;stroke-width:0.5;" width="53.2861" x="137.9448" y="429.4219"/><text fill="#000000" font-family="sans-serif" font-size="14" lengthAdjust="spacing" textLength="39.2861" x="144.9448" y="449.417">COBS</text></g><g class="participant participant-head" data-participant="Windowed"><rect fill="#E2E2F0" height="30.2969" rx="2.5" ry="2.5" style="stroke:#181818;stroke-width:0.5;" width="87.0078" x="248.0049" y="5"/><text fill="#000000" font-family="sans-serif" font-size="14" lengthAdjust="spacing" textLength="73.0078" x="255.0049" y="24.9951">Windowed</text></g><g class="participant participant-tail" data-participant="Windowed"><rect fill="#E2E2F0" height="30.2969" rx="2.5" ry="2.5" style="stroke:#181818;stroke-width:0.5;" width="87.0078" x="248.0049" y="429.4219"/><text fill="#000000" font-family="sans-serif" font-size="14" lengthAdjust="spacing" textLength="73.0078" x="255.0049" y="449.417">Windowed</text></g><g class="participant participant-head" data-participant="Application"><rect fill="#E2E2F0" height="30.2969" rx="2.5" ry="2.5" style="stroke:#181818;stroke-width:0.5;" width="92.2236" x="347.9619" y="5"/><text fill="#000000" font-family="sans-serif" font-size="14" lengthAdjust="spacing" textLength="78.2236" x="354.9619" y="24.9951">Application</text></g><g class="participant participant-tail" data-participant="Application"><rect fill="#E2E2F0" height="30.2969" rx="2.5" ry="2.5" style="stroke:#181818;stroke-width:0.5;" width="92.2236" x="347.9619" y="429.4219"/><text fill="#000000" font-family="sans-serif" font-size="14" lengthAdjust="spacing" textLength="78.2236" x="354.9619" y="449.417">Application</text></g><g class="message" data-participant-1="Windowed" data-participant-2="COBS"><polygon fill="#181818" points="175.5879,78.5625,165.5879,82.5625,175.5879,86.5625,171.5879,82.5625" style="stroke:#181818;stroke-width:1;"/><line style="stroke:#181818;stroke-width:1;" x1="169.5879" x2="290.5088" y1="82.5625" y2="82.5625"/><text fill="#000000" font-family="sans-serif" font-size="13" lengthAdjust="spacing" textLength="20.7822" x="181.5879" y="62.3638">Init</text><text fill="#000000" font-family="sans-serif" font-size="13" lengthAdjust="spacing" textLength="57.8906" x="181.5879" y="77.4966">01 10 00</text></g><path d="M296,55.8633 L296,80.8633 L676,80.8633 L676,65.8633 L666,55.8633 L296,55.8633" fill="#FEFFDD" style="stroke:#181818;stroke-width:0.5;"/><path d="M666,55.8633 L666,65.8633 L676,65.8633 L666,55.8633" fill="#FEFFDD" style="stroke:#181818;stroke-width:0.5;"/><text fill="#000000" font-family="sans-serif" font-size="13" lengthAdjust="spacing" textLength="359.0933" x="302" y="72.9302">16 bytes of window are advertised, which is 0x10 0x00</text><g class="message" data-participant-1="COBS" data-participant-2="COBS"><polygon fill="#181818" points="11,125.8281,1,129.8281,11,133.8281,7,129.8281" style="stroke:#181818;stroke-width:1;"/><line style="stroke:#181818;stroke-width:1;" x1="5" x2="163.5879" y1="129.8281" y2="129.8281"/><text fill="#000000" font-family="sans-serif" font-size="13" lengthAdjust="spacing" textLength="119.9136" x="17" y="124.7622">00 03 01 10 01 00</text></g><path d="M169,95.5625 L169,150.5625 L576,150.5625 L576,105.5625 L566,95.5625 L169,95.5625" fill="#FEFFDD" style="stroke:#181818;stroke-width:0.5;"/><path d="M566,95.5625 L566,105.5625 L576,105.5625 L566,95.5625" fill="#FEFFDD" style="stroke:#181818;stroke-width:0.5;"/><text fill="#000000" font-family="sans-serif" font-size="13" lengthAdjust="spacing" textLength="327.8438" x="175" y="112.6294">The init message is wrapped right and left with 00</text><text fill="#000000" font-family="sans-serif" font-size="13" lengthAdjust="spacing" textLength="386.623" x="175" y="127.7622">A 03 indicates that the third byte must be replaced with 00</text><text fill="#000000" font-family="sans-serif" font-size="13" lengthAdjust="spacing" textLength="336.0259" x="175" y="142.895">The replaced byte contained 01 pointing to the end</text><g class="message" data-participant-1="COBS" data-participant-2="COBS"><polygon fill="#181818" points="152.5879,173.0938,162.5879,177.0938,152.5879,181.0938,156.5879,177.0938" style="stroke:#181818;stroke-width:1;"/><line style="stroke:#181818;stroke-width:1;" x1="0" x2="158.5879" y1="177.0938" y2="177.0938"/><text fill="#000000" font-family="sans-serif" font-size="13" lengthAdjust="spacing" textLength="119.9136" x="7" y="172.0278">00 03 02 10 01 00</text></g><g class="message" data-participant-1="COBS" data-participant-2="Windowed"><polygon fill="#181818" points="279.5088,217.3594,289.5088,221.3594,279.5088,225.3594,283.5088,221.3594" style="stroke:#181818;stroke-width:1;"/><line style="stroke:#181818;stroke-width:1;" x1="164.5879" x2="285.5088" y1="221.3594" y2="221.3594"/><text fill="#000000" font-family="sans-serif" font-size="13" lengthAdjust="spacing" textLength="83.8018" x="171.5879" y="201.1606">InitResponse</text><text fill="#000000" font-family="sans-serif" font-size="13" lengthAdjust="spacing" textLength="57.8906" x="171.5879" y="216.2935">02 10 00</text></g><g class="message" data-participant-1="Application" data-participant-2="Windowed"><polygon fill="#181818" points="302.5088,261.625,292.5088,265.625,302.5088,269.625,298.5088,265.625" style="stroke:#181818;stroke-width:1;"/><line style="stroke:#181818;stroke-width:1;" x1="296.5088" x2="393.0737" y1="265.625" y2="265.625"/><text fill="#000000" font-family="sans-serif" font-size="13" lengthAdjust="spacing" textLength="56.9766" x="308.5088" y="245.4263">Message</text><text fill="#000000" font-family="sans-serif" font-size="13" lengthAdjust="spacing" textLength="78.5649" x="308.5088" y="260.5591">12 34 56 78</text></g><g class="message" data-participant-1="Windowed" data-participant-2="COBS"><polygon fill="#181818" points="175.5879,305.8906,165.5879,309.8906,175.5879,313.8906,171.5879,309.8906" style="stroke:#181818;stroke-width:1;"/><line style="stroke:#181818;stroke-width:1;" x1="169.5879" x2="290.5088" y1="309.8906" y2="309.8906"/><text fill="#000000" font-family="sans-serif" font-size="13" lengthAdjust="spacing" textLength="56.9766" x="181.5879" y="289.6919">Message</text><text fill="#000000" font-family="sans-serif" font-size="13" lengthAdjust="spacing" textLength="99.2393" x="181.5879" y="304.8247">03 12 34 56 78</text></g><g class="message" data-participant-1="COBS" data-participant-2="COBS"><polygon fill="#181818" points="11,335.0234,1,339.0234,11,343.0234,7,339.0234" style="stroke:#181818;stroke-width:1;"/><line style="stroke:#181818;stroke-width:1;" x1="5" x2="163.5879" y1="339.0234" y2="339.0234"/><text fill="#000000" font-family="sans-serif" font-size="13" lengthAdjust="spacing" textLength="140.5879" x="17" y="333.9575">06 03 12 34 56 78 00</text></g><g class="message" data-participant-1="COBS" data-participant-2="COBS"><polygon fill="#181818" points="152.5879,364.1563,162.5879,368.1563,152.5879,372.1563,156.5879,368.1563" style="stroke:#181818;stroke-width:1;"/><line style="stroke:#181818;stroke-width:1;" x1="0" x2="158.5879" y1="368.1563" y2="368.1563"/><text fill="#000000" font-family="sans-serif" font-size="13" lengthAdjust="spacing" textLength="99.2393" x="7" y="363.0903">03 03 07 01 00</text></g><g class="message" data-participant-1="COBS" data-participant-2="Windowed"><polygon fill="#181818" points="279.5088,408.4219,289.5088,412.4219,279.5088,416.4219,283.5088,412.4219" style="stroke:#181818;stroke-width:1;"/><line style="stroke:#181818;stroke-width:1;" x1="164.5879" x2="285.5088" y1="412.4219" y2="412.4219"/><text fill="#000000" font-family="sans-serif" font-size="13" lengthAdjust="spacing" textLength="102.9209" x="171.5879" y="392.2231">ReleaseWindow</text><text fill="#000000" font-family="sans-serif" font-size="13" lengthAdjust="spacing" textLength="57.8906" x="171.5879" y="407.356">03 07 00</text></g><!--SRC=[TL5DQm8n4BtxAzuFg93LLekKWlNKGodOGW_r4dT7Ts1DmcRQjV- -aoYwMWgRXIHltbSMhqzlU1ZYWrtbEwemmxDZMJbJe30mPk2y45hUrZ80YWdMFq8HVeCkZy2s15jzKoiSgRf1LtDPWoFCFX7ibO9SXKGp-5IbHLASAJFC64ULue_GUqrWDO8TnMYtb0YxreQW5ZC6LaaRseZwa3hD0_D4gQwujCcZr5RqHxguhR9nxBwYOAqw51fRAjbvEacUZZEuz4uiEzsgm-3P2Rijn6TI3TKBDdoy2ZOw1yiN2hZgU4anU1T9knuTkpuXjATv24qAmjxfmCkXXfKhHXZVucw2wVs1-FBnJZZrq8Vscv_WyZ8fzmECypVzt_sI6hAH3YTPAg7DBm00]--></g></svg>