<?xml version="1.0" encoding="us-ascii" standalone="no"?><svg xmlns="http://www.w3.org/2000/svg" xmlns:xlink="http://www.w3.org/1999/xlink" contentStyleType="text/css" height="523.9583px" preserveAspectRatio="none" style="width:1120px;height:523px;" version="1.1" viewBox="0 0 1120 523" width="1120.8333px" zoomAndPan="magnify"><defs/><g><!--cluster upgrade--><g id="cluster_upgrade"><path d="M20.8333,16.6667 L91.6667,16.6667 A6.25,6.25 0 0 1 95.8333,20.8333 L103.125,47.8841 L341.6667,47.8841 A4.1667,4.1667 0 0 1 345.8333,52.0508 L345.8333,247.8542 A4.1667,4.1667 0 0 1 341.6667,252.0208 L20.8333,252.0208 A4.1667,4.1667 0 0 1 16.6667,247.8542 L16.6667,20.8333 A4.1667,4.1667 0 0 1 20.8333,16.6667 " fill="none" style="stroke:#2FA4E7;stroke-width:2.0833333333333335;"/><line style="stroke:#2FA4E7;stroke-width:2.0833333333333335;" x1="16.6667" x2="103.125" y1="47.8841" y2="47.8841"/><text fill="#2FA4E7" font-family="Verdana" font-size="12.5" font-weight="bold" lengthAdjust="spacing" textLength="62.5" x="26.0417" y="35.5611">upgrade</text></g><!--cluster protobuf--><g id="cluster_protobuf"><path d="M375,16.6667 L447.9167,16.6667 A6.25,6.25 0 0 1 452.0833,20.8333 L459.375,47.8841 L680.2083,47.8841 A4.1667,4.1667 0 0 1 684.375,52.0508 L684.375,247.8542 A4.1667,4.1667 0 0 1 680.2083,252.0208 L375,252.0208 A4.1667,4.1667 0 0 1 370.8333,247.8542 L370.8333,20.8333 A4.1667,4.1667 0 0 1 375,16.6667 " fill="none" style="stroke:#2FA4E7;stroke-width:2.0833333333333335;"/><line style="stroke:#2FA4E7;stroke-width:2.0833333333333335;" x1="370.8333" x2="459.375" y1="47.8841" y2="47.8841"/><text fill="#2FA4E7" font-family="Verdana" font-size="12.5" font-weight="bold" lengthAdjust="spacing" textLength="64.5833" x="380.2083" y="35.5611">protobuf</text></g><!--cluster services--><g id="cluster_services"><path d="M713.5417,16.6667 L782.2917,16.6667 A6.25,6.25 0 0 1 786.4583,20.8333 L793.75,47.8841 L1104.1667,47.8841 A4.1667,4.1667 0 0 1 1108.3333,52.0508 L1108.3333,247.8542 A4.1667,4.1667 0 0 1 1104.1667,252.0208 L713.5417,252.0208 A4.1667,4.1667 0 0 1 709.375,247.8542 L709.375,20.8333 A4.1667,4.1667 0 0 1 713.5417,16.6667 " fill="none" style="stroke:#2FA4E7;stroke-width:2.0833333333333335;"/><line style="stroke:#2FA4E7;stroke-width:2.0833333333333335;" x1="709.375" x2="793.75" y1="47.8841" y2="47.8841"/><text fill="#2FA4E7" font-family="Verdana" font-size="12.5" font-weight="bold" lengthAdjust="spacing" textLength="60.4167" x="718.75" y="35.5611">services</text></g><!--cluster hal--><g id="cluster_hal"><path d="M25,277.0208 L56.25,277.0208 A6.25,6.25 0 0 1 60.4167,281.1875 L67.7083,308.2383 L411.4583,308.2383 A4.1667,4.1667 0 0 1 415.625,312.4049 L415.625,508.2083 A4.1667,4.1667 0 0 1 411.4583,512.375 L25,512.375 A4.1667,4.1667 0 0 1 20.8333,508.2083 L20.8333,281.1875 A4.1667,4.1667 0 0 1 25,277.0208 " fill="none" style="stroke:#2FA4E7;stroke-width:2.0833333333333335;"/><line style="stroke:#2FA4E7;stroke-width:2.0833333333333335;" x1="20.8333" x2="67.7083" y1="308.2383" y2="308.2383"/><text fill="#2FA4E7" font-family="Verdana" font-size="12.5" font-weight="bold" lengthAdjust="spacing" textLength="22.9167" x="30.2083" y="295.9153">hal</text></g><!--cluster infra--><g id="cluster_infra"><path d="M444.7917,277.0208 L487.5,277.0208 A6.25,6.25 0 0 1 491.6667,281.1875 L498.9583,308.2383 L693.75,308.2383 A4.1667,4.1667 0 0 1 697.9167,312.4049 L697.9167,508.2083 A4.1667,4.1667 0 0 1 693.75,512.375 L444.7917,512.375 A4.1667,4.1667 0 0 1 440.625,508.2083 L440.625,281.1875 A4.1667,4.1667 0 0 1 444.7917,277.0208 " fill="none" style="stroke:#2FA4E7;stroke-width:2.0833333333333335;"/><line style="stroke:#2FA4E7;stroke-width:2.0833333333333335;" x1="440.625" x2="498.9583" y1="308.2383" y2="308.2383"/><text fill="#2FA4E7" font-family="Verdana" font-size="12.5" font-weight="bold" lengthAdjust="spacing" textLength="34.375" x="450" y="295.9153">infra</text></g><!--entity bootloader--><g id="elem_bootloader"><rect fill="none" height="56.2174" rx="4.1667" ry="4.1667" style="stroke:#2FA4E7;stroke-width:1.0416666666666667;" width="123.9583" x="33.8542" y="60.4167"/><rect fill="none" height="10.4167" style="stroke:#2FA4E7;stroke-width:1.0416666666666667;" width="15.625" x="136.9792" y="65.625"/><rect fill="none" height="2.0833" style="stroke:#2FA4E7;stroke-width:1.0416666666666667;" width="4.1667" x="134.8958" y="67.7083"/><rect fill="none" height="2.0833" style="stroke:#2FA4E7;stroke-width:1.0416666666666667;" width="4.1667" x="134.8958" y="71.875"/><text fill="#2FA4E7" font-family="Verdana" font-size="12.5" lengthAdjust="spacing" textLength="71.875" x="54.6875" y="98.0611">bootloader</text></g><!--entity pack_builder--><g id="elem_pack_builder"><rect fill="none" height="56.2174" rx="4.1667" ry="4.1667" style="stroke:#2FA4E7;stroke-width:1.0416666666666667;" width="134.375" x="194.2708" y="60.4167"/><rect fill="none" height="10.4167" style="stroke:#2FA4E7;stroke-width:1.0416666666666667;" width="15.625" x="307.8125" y="65.625"/><rect fill="none" height="2.0833" style="stroke:#2FA4E7;stroke-width:1.0416666666666667;" width="4.1667" x="305.7292" y="67.7083"/><rect fill="none" height="2.0833" style="stroke:#2FA4E7;stroke-width:1.0416666666666667;" width="4.1667" x="305.7292" y="71.875"/><text fill="#2FA4E7" font-family="Verdana" font-size="12.5" lengthAdjust="spacing" textLength="82.2917" x="215.1042" y="98.0611">pack_builder</text></g><!--entity more_upgrade--><g id="elem_more_upgrade"><rect fill="none" height="56.2174" rx="4.1667" ry="4.1667" style="stroke:#2FA4E7;stroke-width:1.0416666666666667;" width="64.5833" x="63.5417" y="179.1354"/><rect fill="none" height="10.4167" style="stroke:#2FA4E7;stroke-width:1.0416666666666667;" width="15.625" x="107.2917" y="184.3437"/><rect fill="none" height="2.0833" style="stroke:#2FA4E7;stroke-width:1.0416666666666667;" width="4.1667" x="105.2083" y="186.4271"/><rect fill="none" height="2.0833" style="stroke:#2FA4E7;stroke-width:1.0416666666666667;" width="4.1667" x="105.2083" y="190.5937"/><text fill="#2FA4E7" font-family="Verdana" font-size="12.5" lengthAdjust="spacing" textLength="12.5" x="84.375" y="216.7799">...</text></g><!--entity echo--><g id="elem_echo"><rect fill="none" height="56.2174" rx="4.1667" ry="4.1667" style="stroke:#2FA4E7;stroke-width:1.0416666666666667;" width="84.375" x="396.3542" y="60.4167"/><rect fill="none" height="10.4167" style="stroke:#2FA4E7;stroke-width:1.0416666666666667;" width="15.625" x="459.8958" y="65.625"/><rect fill="none" height="2.0833" style="stroke:#2FA4E7;stroke-width:1.0416666666666667;" width="4.1667" x="457.8125" y="67.7083"/><rect fill="none" height="2.0833" style="stroke:#2FA4E7;stroke-width:1.0416666666666667;" width="4.1667" x="457.8125" y="71.875"/><text fill="#2FA4E7" font-family="Verdana" font-size="12.5" lengthAdjust="spacing" textLength="32.2917" x="417.1875" y="98.0611">echo</text></g><!--entity echo_console--><g id="elem_echo_console"><rect fill="none" height="56.2174" rx="4.1667" ry="4.1667" style="stroke:#2FA4E7;stroke-width:1.0416666666666667;" width="141.6667" x="526.0417" y="60.4167"/><rect fill="none" height="10.4167" style="stroke:#2FA4E7;stroke-width:1.0416666666666667;" width="15.625" x="646.875" y="65.625"/><rect fill="none" height="2.0833" style="stroke:#2FA4E7;stroke-width:1.0416666666666667;" width="4.1667" x="644.7917" y="67.7083"/><rect fill="none" height="2.0833" style="stroke:#2FA4E7;stroke-width:1.0416666666666667;" width="4.1667" x="644.7917" y="71.875"/><text fill="#2FA4E7" font-family="Verdana" font-size="12.5" lengthAdjust="spacing" textLength="89.5833" x="546.875" y="98.0611">echo_console</text></g><!--entity protoc_echo_plugin--><g id="elem_protoc_echo_plugin"><rect fill="none" height="56.2174" rx="4.1667" ry="4.1667" style="stroke:#2FA4E7;stroke-width:1.0416666666666667;" width="179.1667" x="387.5" y="179.1354"/><rect fill="none" height="10.4167" style="stroke:#2FA4E7;stroke-width:1.0416666666666667;" width="15.625" x="545.8333" y="184.3437"/><rect fill="none" height="2.0833" style="stroke:#2FA4E7;stroke-width:1.0416666666666667;" width="4.1667" x="543.75" y="186.4271"/><rect fill="none" height="2.0833" style="stroke:#2FA4E7;stroke-width:1.0416666666666667;" width="4.1667" x="543.75" y="190.5937"/><text fill="#2FA4E7" font-family="Verdana" font-size="12.5" lengthAdjust="spacing" textLength="127.0833" x="408.3333" y="216.7799">protoc_echo_plugin</text></g><!--entity more_protobuf--><g id="elem_more_protobuf"><rect fill="none" height="56.2174" rx="4.1667" ry="4.1667" style="stroke:#2FA4E7;stroke-width:1.0416666666666667;" width="64.5833" x="603.125" y="179.1354"/><rect fill="none" height="10.4167" style="stroke:#2FA4E7;stroke-width:1.0416666666666667;" width="15.625" x="646.875" y="184.3437"/><rect fill="none" height="2.0833" style="stroke:#2FA4E7;stroke-width:1.0416666666666667;" width="4.1667" x="644.7917" y="186.4271"/><rect fill="none" height="2.0833" style="stroke:#2FA4E7;stroke-width:1.0416666666666667;" width="4.1667" x="644.7917" y="190.5937"/><text fill="#2FA4E7" font-family="Verdana" font-size="12.5" lengthAdjust="spacing" textLength="12.5" x="623.9583" y="216.7799">...</text></g><!--entity ble--><g id="elem_ble"><rect fill="none" height="56.2174" rx="4.1667" ry="4.1667" style="stroke:#2FA4E7;stroke-width:1.0416666666666667;" width="71.875" x="725.5208" y="60.4167"/><rect fill="none" height="10.4167" style="stroke:#2FA4E7;stroke-width:1.0416666666666667;" width="15.625" x="776.5625" y="65.625"/><rect fill="none" height="2.0833" style="stroke:#2FA4E7;stroke-width:1.0416666666666667;" width="4.1667" x="774.4792" y="67.7083"/><rect fill="none" height="2.0833" style="stroke:#2FA4E7;stroke-width:1.0416666666666667;" width="4.1667" x="774.4792" y="71.875"/><text fill="#2FA4E7" font-family="Verdana" font-size="12.5" lengthAdjust="spacing" textLength="19.7917" x="746.3542" y="98.0611">ble</text></g><!--entity cucumber--><g id="elem_cucumber"><rect fill="none" height="56.2174" rx="4.1667" ry="4.1667" style="stroke:#2FA4E7;stroke-width:1.0416666666666667;" width="116.6667" x="834.375" y="60.4167"/><rect fill="none" height="10.4167" style="stroke:#2FA4E7;stroke-width:1.0416666666666667;" width="15.625" x="930.2083" y="65.625"/><rect fill="none" height="2.0833" style="stroke:#2FA4E7;stroke-width:1.0416666666666667;" width="4.1667" x="928.125" y="67.7083"/><rect fill="none" height="2.0833" style="stroke:#2FA4E7;stroke-width:1.0416666666666667;" width="4.1667" x="928.125" y="71.875"/><text fill="#2FA4E7" font-family="Verdana" font-size="12.5" lengthAdjust="spacing" textLength="64.5833" x="855.2083" y="98.0611">cucumber</text></g><!--entity network--><g id="elem_network"><rect fill="none" height="56.2174" rx="4.1667" ry="4.1667" style="stroke:#2FA4E7;stroke-width:1.0416666666666667;" width="104.1667" x="987.5" y="60.4167"/><rect fill="none" height="10.4167" style="stroke:#2FA4E7;stroke-width:1.0416666666666667;" width="15.625" x="1070.8333" y="65.625"/><rect fill="none" height="2.0833" style="stroke:#2FA4E7;stroke-width:1.0416666666666667;" width="4.1667" x="1068.75" y="67.7083"/><rect fill="none" height="2.0833" style="stroke:#2FA4E7;stroke-width:1.0416666666666667;" width="4.1667" x="1068.75" y="71.875"/><text fill="#2FA4E7" font-family="Verdana" font-size="12.5" lengthAdjust="spacing" textLength="52.0833" x="1008.3333" y="98.0611">network</text></g><!--entity tracer--><g id="elem_tracer"><rect fill="none" height="56.2174" rx="4.1667" ry="4.1667" style="stroke:#2FA4E7;stroke-width:1.0416666666666667;" width="91.6667" x="726.0417" y="179.1354"/><rect fill="none" height="10.4167" style="stroke:#2FA4E7;stroke-width:1.0416666666666667;" width="15.625" x="796.875" y="184.3437"/><rect fill="none" height="2.0833" style="stroke:#2FA4E7;stroke-width:1.0416666666666667;" width="4.1667" x="794.7917" y="186.4271"/><rect fill="none" height="2.0833" style="stroke:#2FA4E7;stroke-width:1.0416666666666667;" width="4.1667" x="794.7917" y="190.5937"/><text fill="#2FA4E7" font-family="Verdana" font-size="12.5" lengthAdjust="spacing" textLength="39.5833" x="746.875" y="216.7799">tracer</text></g><!--entity util--><g id="elem_util"><rect fill="none" height="56.2174" rx="4.1667" ry="4.1667" style="stroke:#2FA4E7;stroke-width:1.0416666666666667;" width="71.875" x="853.6458" y="179.1354"/><rect fill="none" height="10.4167" style="stroke:#2FA4E7;stroke-width:1.0416666666666667;" width="15.625" x="904.6875" y="184.3437"/><rect fill="none" height="2.0833" style="stroke:#2FA4E7;stroke-width:1.0416666666666667;" width="4.1667" x="902.6042" y="186.4271"/><rect fill="none" height="2.0833" style="stroke:#2FA4E7;stroke-width:1.0416666666666667;" width="4.1667" x="902.6042" y="190.5937"/><text fill="#2FA4E7" font-family="Verdana" font-size="12.5" lengthAdjust="spacing" textLength="19.7917" x="874.4792" y="216.7799">util</text></g><!--entity more_services--><g id="elem_more_services"><rect fill="none" height="56.2174" rx="4.1667" ry="4.1667" style="stroke:#2FA4E7;stroke-width:1.0416666666666667;" width="64.5833" x="961.4583" y="179.1354"/><rect fill="none" height="10.4167" style="stroke:#2FA4E7;stroke-width:1.0416666666666667;" width="15.625" x="1005.2083" y="184.3437"/><rect fill="none" height="2.0833" style="stroke:#2FA4E7;stroke-width:1.0416666666666667;" width="4.1667" x="1003.125" y="186.4271"/><rect fill="none" height="2.0833" style="stroke:#2FA4E7;stroke-width:1.0416666666666667;" width="4.1667" x="1003.125" y="190.5937"/><text fill="#2FA4E7" font-family="Verdana" font-size="12.5" lengthAdjust="spacing" textLength="12.5" x="982.2917" y="216.7799">...</text></g><!--entity interfaces--><g id="elem_interfaces"><rect fill="none" height="56.2174" rx="4.1667" ry="4.1667" style="stroke:#2FA4E7;stroke-width:1.0416666666666667;" width="117.7083" x="36.9792" y="320.7708"/><rect fill="none" height="10.4167" style="stroke:#2FA4E7;stroke-width:1.0416666666666667;" width="15.625" x="133.8542" y="325.9792"/><rect fill="none" height="2.0833" style="stroke:#2FA4E7;stroke-width:1.0416666666666667;" width="4.1667" x="131.7708" y="328.0625"/><rect fill="none" height="2.0833" style="stroke:#2FA4E7;stroke-width:1.0416666666666667;" width="4.1667" x="131.7708" y="332.2292"/><text fill="#2FA4E7" font-family="Verdana" font-size="12.5" lengthAdjust="spacing" textLength="65.625" x="57.8125" y="358.4153">interfaces</text></g><!--entity synchronous_interfaces--><g id="elem_synchronous_interfaces"><rect fill="none" height="56.2174" rx="4.1667" ry="4.1667" style="stroke:#2FA4E7;stroke-width:1.0416666666666667;" width="207.2917" x="191.1458" y="320.7708"/><rect fill="none" height="10.4167" style="stroke:#2FA4E7;stroke-width:1.0416666666666667;" width="15.625" x="377.6042" y="325.9792"/><rect fill="none" height="2.0833" style="stroke:#2FA4E7;stroke-width:1.0416666666666667;" width="4.1667" x="375.5208" y="328.0625"/><rect fill="none" height="2.0833" style="stroke:#2FA4E7;stroke-width:1.0416666666666667;" width="4.1667" x="375.5208" y="332.2292"/><text fill="#2FA4E7" font-family="Verdana" font-size="12.5" lengthAdjust="spacing" textLength="155.2083" x="211.9792" y="358.4153">synchronous_interfaces</text></g><!--entity more_hal--><g id="elem_more_hal"><rect fill="none" height="56.2174" rx="4.1667" ry="4.1667" style="stroke:#2FA4E7;stroke-width:1.0416666666666667;" width="64.5833" x="63.5417" y="439.4896"/><rect fill="none" height="10.4167" style="stroke:#2FA4E7;stroke-width:1.0416666666666667;" width="15.625" x="107.2917" y="444.6979"/><rect fill="none" height="2.0833" style="stroke:#2FA4E7;stroke-width:1.0416666666666667;" width="4.1667" x="105.2083" y="446.7813"/><rect fill="none" height="2.0833" style="stroke:#2FA4E7;stroke-width:1.0416666666666667;" width="4.1667" x="105.2083" y="450.9479"/><text fill="#2FA4E7" font-family="Verdana" font-size="12.5" lengthAdjust="spacing" textLength="12.5" x="84.375" y="477.134">...</text></g><!--entity event--><g id="elem_event"><rect fill="none" height="56.2174" rx="4.1667" ry="4.1667" style="stroke:#2FA4E7;stroke-width:1.0416666666666667;" width="88.5417" x="457.8125" y="320.7708"/><rect fill="none" height="10.4167" style="stroke:#2FA4E7;stroke-width:1.0416666666666667;" width="15.625" x="525.5208" y="325.9792"/><rect fill="none" height="2.0833" style="stroke:#2FA4E7;stroke-width:1.0416666666666667;" width="4.1667" x="523.4375" y="328.0625"/><rect fill="none" height="2.0833" style="stroke:#2FA4E7;stroke-width:1.0416666666666667;" width="4.1667" x="523.4375" y="332.2292"/><text fill="#2FA4E7" font-family="Verdana" font-size="12.5" lengthAdjust="spacing" textLength="36.4583" x="478.6458" y="358.4153">event</text></g><!--entity stream--><g id="elem_stream"><rect fill="none" height="56.2174" rx="4.1667" ry="4.1667" style="stroke:#2FA4E7;stroke-width:1.0416666666666667;" width="97.9167" x="583.3333" y="320.7708"/><rect fill="none" height="10.4167" style="stroke:#2FA4E7;stroke-width:1.0416666666666667;" width="15.625" x="660.4167" y="325.9792"/><rect fill="none" height="2.0833" style="stroke:#2FA4E7;stroke-width:1.0416666666666667;" width="4.1667" x="658.3333" y="328.0625"/><rect fill="none" height="2.0833" style="stroke:#2FA4E7;stroke-width:1.0416666666666667;" width="4.1667" x="658.3333" y="332.2292"/><text fill="#2FA4E7" font-family="Verdana" font-size="12.5" lengthAdjust="spacing" textLength="45.8333" x="604.1667" y="358.4153">stream</text></g><!--entity syntax--><g id="elem_syntax"><rect fill="none" height="56.2174" rx="4.1667" ry="4.1667" style="stroke:#2FA4E7;stroke-width:1.0416666666666667;" width="93.75" x="457.2917" y="439.4896"/><rect fill="none" height="10.4167" style="stroke:#2FA4E7;stroke-width:1.0416666666666667;" width="15.625" x="530.2083" y="444.6979"/><rect fill="none" height="2.0833" style="stroke:#2FA4E7;stroke-width:1.0416666666666667;" width="4.1667" x="528.125" y="446.7813"/><rect fill="none" height="2.0833" style="stroke:#2FA4E7;stroke-width:1.0416666666666667;" width="4.1667" x="528.125" y="450.9479"/><text fill="#2FA4E7" font-family="Verdana" font-size="12.5" lengthAdjust="spacing" textLength="41.6667" x="478.125" y="477.134">syntax</text></g><!--entity timer--><g id="elem_timer"><rect fill="none" height="56.2174" rx="4.1667" ry="4.1667" style="stroke:#2FA4E7;stroke-width:1.0416666666666667;" width="85.4167" x="587.5" y="439.4896"/><rect fill="none" height="10.4167" style="stroke:#2FA4E7;stroke-width:1.0416666666666667;" width="15.625" x="652.0833" y="444.6979"/><rect fill="none" height="2.0833" style="stroke:#2FA4E7;stroke-width:1.0416666666666667;" width="4.1667" x="650" y="446.7813"/><rect fill="none" height="2.0833" style="stroke:#2FA4E7;stroke-width:1.0416666666666667;" width="4.1667" x="650" y="450.9479"/><text fill="#2FA4E7" font-family="Verdana" font-size="12.5" lengthAdjust="spacing" textLength="33.3333" x="608.3333" y="477.134">timer</text></g><!--SRC=[bP9HQiCm38RVUmhl0Ck5nZ2EgYIcjcHakTiOlVlYm085fH0z6Dk_B7twyPikcD41IaiOw9sRfaXukRWrIe1RcD6rCakuellTRdi0vyA4f6variIhAeRO2_YnnMJBcGNzV_6FFQ77C0px-NFRFPwPYh3os2OJ2c7XWsiFJ9KJMhIz9FWjgwGsHpfYtfkVXAuezmXORITDA6ZGycZQHwXVB3T3KGbWFcaQqz5GEzp9ePQGp7aYASgqWbH3h3y4Yp1ng_vbueRMMvoaYZH9i3_7VLqj91KCsMRLy6tP7FDhbnz_]--></g></svg>