<svg xmlns="http://www.w3.org/2000/svg" xmlns:xlink="http://www.w3.org/1999/xlink" contentStyleType="text/css" data-diagram-type="CLASS" height="167px" preserveAspectRatio="none" style="width:218px;height:167px;background:#FFFFFF;" version="1.1" viewBox="0 0 218 167" width="218px" zoomAndPan="magnify"><defs/><g><!--entity node--><g class="entity" data-entity="node" data-source-line="2" data-uid="ent0002" id="entity_node"><polygon fill="#F1F1F1" points="7,17,17,7,201.4102,7,201.4102,140.4844,191.4102,150.4844,7,150.4844,7,17" style="stroke:#181818;stroke-width:0.5;"/><line style="stroke:#181818;stroke-width:0.5;" x1="191.4102" x2="201.4102" y1="17" y2="7"/><line style="stroke:#181818;stroke-width:0.5;" x1="7" x2="191.4102" y1="17" y2="17"/><line style="stroke:#181818;stroke-width:0.5;" x1="191.4102" x2="191.4102" y1="17" y2="150.4844"/><text fill="#000000" font-family="sans-serif" font-size="14" lengthAdjust="spacing" textLength="40.168" x="22" y="39.9951">ECHO</text><line style="stroke:#181818;stroke-width:1;" x1="7" x2="191.4102" y1="43.2969" y2="43.2969"/><line style="stroke:#181818;stroke-width:1;" x1="191.4102" x2="201.4102" y1="43.2969" y2="33.2969"/><line style="stroke:#181818;stroke-width:1;" x1="7" x2="191.4102" y1="45.2969" y2="45.2969"/><line style="stroke:#181818;stroke-width:1;" x1="191.4102" x2="201.4102" y1="45.2969" y2="35.2969"/><text fill="#000000" font-family="sans-serif" font-size="14" lengthAdjust="spacing" textLength="57.3262" x="22" y="60.292">Secured</text><line style="stroke:#181818;stroke-width:1;stroke-dasharray:1.0,2.0;" x1="7" x2="191.4102" y1="67.5938" y2="67.5938"/><line style="stroke:#181818;stroke-width:1;stroke-dasharray:1.0,2.0;" x1="191.4102" x2="201.4102" y1="67.5938" y2="57.5938"/><text fill="#000000" font-family="sans-serif" font-size="14" lengthAdjust="spacing" textLength="73.0078" x="22" y="84.5889">Windowed</text><line style="stroke:#181818;stroke-width:1;stroke-dasharray:1.0,2.0;" x1="7" x2="191.4102" y1="91.8906" y2="91.8906"/><line style="stroke:#181818;stroke-width:1;stroke-dasharray:1.0,2.0;" x1="191.4102" x2="201.4102" y1="91.8906" y2="81.8906"/><text fill="#000000" font-family="sans-serif" font-size="14" lengthAdjust="spacing" textLength="39.2861" x="22" y="108.8857">COBS</text><line style="stroke:#181818;stroke-width:1;" x1="7" x2="191.4102" y1="116.1875" y2="116.1875"/><line style="stroke:#181818;stroke-width:1;" x1="191.4102" x2="201.4102" y1="116.1875" y2="106.1875"/><line style="stroke:#181818;stroke-width:1;" x1="7" x2="191.4102" y1="118.1875" y2="118.1875"/><line style="stroke:#181818;stroke-width:1;" x1="191.4102" x2="201.4102" y1="118.1875" y2="108.1875"/><text fill="#000000" font-family="sans-serif" font-size="14" lengthAdjust="spacing" textLength="154.4102" x="22" y="133.1826">Serial Communication</text></g><!--SRC=[oyjFILN80n7HNAxE7lvSja305PoQN5gKciAb1mHSuPbvAVdbC9wplrCmJ55HPcAEWdD-RcvfNcPoOabcVXvNB000]--></g></svg>