<svg xmlns="http://www.w3.org/2000/svg" xmlns:xlink="http://www.w3.org/1999/xlink" contentStyleType="text/css" data-diagram-type="DESCRIPTION" height="523.9583px" preserveAspectRatio="none" style="width:1101px;height:523px;" version="1.1" viewBox="0 0 1101 523" width="1101.0417px" zoomAndPan="magnify"><defs/><g><!--cluster upgrade--><g class="cluster" data-entity="upgrade" data-source-line="3" data-uid="ent0002" id="cluster_upgrade"><path d="M20.8333,16.6667 L87.9862,16.6667 A6.25,6.25 0 0 1 92.1529,20.8333 L99.4446,47.8841 L333.3333,47.8841 A4.1667,4.1667 0 0 1 337.5,52.0508 L337.5,247.8542 A4.1667,4.1667 0 0 1 333.3333,252.0208 L20.8333,252.0208 A4.1667,4.1667 0 0 1 16.6667,247.8542 L16.6667,20.8333 A4.1667,4.1667 0 0 1 20.8333,16.6667" fill="none" style="stroke:#2FA4E7;stroke-width:2.0833;"/><line style="stroke:#2FA4E7;stroke-width:2.0833;" x1="16.6667" x2="99.4446" y1="47.8841" y2="47.8841"/><text fill="#2FA4E7" font-family="Verdana" font-size="12.5" font-weight="bold" lengthAdjust="spacing" textLength="58.8196" x="26.0417" y="35.5611">upgrade</text></g><!--cluster protobuf--><g class="cluster" data-entity="protobuf" data-source-line="11" data-uid="ent0006" id="cluster_protobuf"><path d="M366.6667,16.6667 L436.5479,16.6667 A6.25,6.25 0 0 1 440.7145,20.8333 L448.0062,47.8841 L665.625,47.8841 A4.1667,4.1667 0 0 1 669.7917,52.0508 L669.7917,247.8542 A4.1667,4.1667 0 0 1 665.625,252.0208 L366.6667,252.0208 A4.1667,4.1667 0 0 1 362.5,247.8542 L362.5,20.8333 A4.1667,4.1667 0 0 1 366.6667,16.6667" fill="none" style="stroke:#2FA4E7;stroke-width:2.0833;"/><line style="stroke:#2FA4E7;stroke-width:2.0833;" x1="362.5" x2="448.0062" y1="47.8841" y2="47.8841"/><text fill="#2FA4E7" font-family="Verdana" font-size="12.5" font-weight="bold" lengthAdjust="spacing" textLength="61.5479" x="371.875" y="35.5611">protobuf</text></g><!--cluster services--><g class="cluster" data-entity="services" data-source-line="20" data-uid="ent0011" id="cluster_services"><path d="M698.9583,16.6667 L765.1347,16.6667 A6.25,6.25 0 0 1 769.3014,20.8333 L776.593,47.8841 L1084.375,47.8841 A4.1667,4.1667 0 0 1 1088.5417,52.0508 L1088.5417,247.8542 A4.1667,4.1667 0 0 1 1084.375,252.0208 L698.9583,252.0208 A4.1667,4.1667 0 0 1 694.7917,247.8542 L694.7917,20.8333 A4.1667,4.1667 0 0 1 698.9583,16.6667" fill="none" style="stroke:#2FA4E7;stroke-width:2.0833;"/><line style="stroke:#2FA4E7;stroke-width:2.0833;" x1="694.7917" x2="776.593" y1="47.8841" y2="47.8841"/><text fill="#2FA4E7" font-family="Verdana" font-size="12.5" font-weight="bold" lengthAdjust="spacing" textLength="57.843" x="704.1667" y="35.5611">services</text></g><!--cluster hal--><g class="cluster" data-entity="hal" data-source-line="31" data-uid="ent0018" id="cluster_hal"><path d="M22.9167,277.0208 L52.8687,277.0208 A6.25,6.25 0 0 1 57.0353,281.1875 L64.327,308.2383 L398.9583,308.2383 A4.1667,4.1667 0 0 1 403.125,312.4049 L403.125,508.2083 A4.1667,4.1667 0 0 1 398.9583,512.375 L22.9167,512.375 A4.1667,4.1667 0 0 1 18.75,508.2083 L18.75,281.1875 A4.1667,4.1667 0 0 1 22.9167,277.0208" fill="none" style="stroke:#2FA4E7;stroke-width:2.0833;"/><line style="stroke:#2FA4E7;stroke-width:2.0833;" x1="18.75" x2="64.327" y1="308.2383" y2="308.2383"/><text fill="#2FA4E7" font-family="Verdana" font-size="12.5" font-weight="bold" lengthAdjust="spacing" textLength="21.6187" x="28.125" y="295.9153">hal</text></g><!--cluster infra--><g class="cluster" data-entity="infra" data-source-line="39" data-uid="ent0022" id="cluster_infra"><path d="M432.2917,277.0208 L473.8464,277.0208 A6.25,6.25 0 0 1 478.0131,281.1875 L485.3048,308.2383 L677.0833,308.2383 A4.1667,4.1667 0 0 1 681.25,312.4049 L681.25,508.2083 A4.1667,4.1667 0 0 1 677.0833,512.375 L432.2917,512.375 A4.1667,4.1667 0 0 1 428.125,508.2083 L428.125,281.1875 A4.1667,4.1667 0 0 1 432.2917,277.0208" fill="none" style="stroke:#2FA4E7;stroke-width:2.0833;"/><line style="stroke:#2FA4E7;stroke-width:2.0833;" x1="428.125" x2="485.3048" y1="308.2383" y2="308.2383"/><text fill="#2FA4E7" font-family="Verdana" font-size="12.5" font-weight="bold" lengthAdjust="spacing" textLength="33.2214" x="437.5" y="295.9153">infra</text></g><!--entity bootloader--><g class="entity" data-entity="bootloader" data-source-line="4" data-uid="ent0003" id="entity_bootloader"><rect fill="none" height="56.2174" rx="4.1667" ry="4.1667" style="stroke:#2FA4E7;stroke-width:1.0417;" width="119.7591" x="32.8333" y="60.4167"/><rect fill="none" height="10.4167" style="stroke:#2FA4E7;stroke-width:1.0417;" width="15.625" x="131.7591" y="65.625"/><rect fill="none" height="2.0833" style="stroke:#2FA4E7;stroke-width:1.0417;" width="4.1667" x="129.6758" y="67.7083"/><rect fill="none" height="2.0833" style="stroke:#2FA4E7;stroke-width:1.0417;" width="4.1667" x="129.6758" y="71.875"/><text fill="#2FA4E7" font-family="Verdana" font-size="12.5" lengthAdjust="spacing" textLength="67.6758" x="53.6667" y="98.0611">bootloader</text></g><!--entity pack_builder--><g class="entity" data-entity="pack_builder" data-source-line="5" data-uid="ent0004" id="entity_pack_builder"><rect fill="none" height="56.2174" rx="4.1667" ry="4.1667" style="stroke:#2FA4E7;stroke-width:1.0417;" width="131.606" x="189.4063" y="60.4167"/><rect fill="none" height="10.4167" style="stroke:#2FA4E7;stroke-width:1.0417;" width="15.625" x="300.179" y="65.625"/><rect fill="none" height="2.0833" style="stroke:#2FA4E7;stroke-width:1.0417;" width="4.1667" x="298.0956" y="67.7083"/><rect fill="none" height="2.0833" style="stroke:#2FA4E7;stroke-width:1.0417;" width="4.1667" x="298.0956" y="71.875"/><text fill="#2FA4E7" font-family="Verdana" font-size="12.5" lengthAdjust="spacing" textLength="79.5227" x="210.2396" y="98.0611">pack_builder</text></g><!--entity more_upgrade--><g class="entity" data-entity="more_upgrade" data-source-line="7" data-uid="ent0005" id="entity_more_upgrade"><rect fill="none" height="56.2174" rx="4.1667" ry="4.1667" style="stroke:#2FA4E7;stroke-width:1.0417;" width="64.0035" x="60.7083" y="179.1354"/><rect fill="none" height="10.4167" style="stroke:#2FA4E7;stroke-width:1.0417;" width="15.625" x="103.8785" y="184.3437"/><rect fill="none" height="2.0833" style="stroke:#2FA4E7;stroke-width:1.0417;" width="4.1667" x="101.7952" y="186.4271"/><rect fill="none" height="2.0833" style="stroke:#2FA4E7;stroke-width:1.0417;" width="4.1667" x="101.7952" y="190.5937"/><text fill="#2FA4E7" font-family="Verdana" font-size="12.5" lengthAdjust="spacing" textLength="11.9202" x="81.5417" y="216.7799">...</text></g><!--entity echo--><g class="entity" data-entity="echo" data-source-line="12" data-uid="ent0007" id="entity_echo"><rect fill="none" height="56.2174" rx="4.1667" ry="4.1667" style="stroke:#2FA4E7;stroke-width:1.0417;" width="82.2164" x="389.1042" y="60.4167"/><rect fill="none" height="10.4167" style="stroke:#2FA4E7;stroke-width:1.0417;" width="15.625" x="450.4872" y="65.625"/><rect fill="none" height="2.0833" style="stroke:#2FA4E7;stroke-width:1.0417;" width="4.1667" x="448.4039" y="67.7083"/><rect fill="none" height="2.0833" style="stroke:#2FA4E7;stroke-width:1.0417;" width="4.1667" x="448.4039" y="71.875"/><text fill="#2FA4E7" font-family="Verdana" font-size="12.5" lengthAdjust="spacing" textLength="30.1331" x="409.9375" y="98.0611">echo</text></g><!--entity echo_console--><g class="entity" data-entity="echo_console" data-source-line="13" data-uid="ent0008" id="entity_echo_console"><rect fill="none" height="56.2174" rx="4.1667" ry="4.1667" style="stroke:#2FA4E7;stroke-width:1.0417;" width="136.2325" x="517.3021" y="60.4167"/><rect fill="none" height="10.4167" style="stroke:#2FA4E7;stroke-width:1.0417;" width="15.625" x="632.7013" y="65.625"/><rect fill="none" height="2.0833" style="stroke:#2FA4E7;stroke-width:1.0417;" width="4.1667" x="630.6179" y="67.7083"/><rect fill="none" height="2.0833" style="stroke:#2FA4E7;stroke-width:1.0417;" width="4.1667" x="630.6179" y="71.875"/><text fill="#2FA4E7" font-family="Verdana" font-size="12.5" lengthAdjust="spacing" textLength="84.1492" x="538.1354" y="98.0611">echo_console</text></g><!--entity protoc_echo_plugin--><g class="entity" data-entity="protoc_echo_plugin" data-source-line="14" data-uid="ent0009" id="entity_protoc_echo_plugin"><rect fill="none" height="56.2174" rx="4.1667" ry="4.1667" style="stroke:#2FA4E7;stroke-width:1.0417;" width="173.5189" x="378.8646" y="179.1354"/><rect fill="none" height="10.4167" style="stroke:#2FA4E7;stroke-width:1.0417;" width="15.625" x="531.5501" y="184.3437"/><rect fill="none" height="2.0833" style="stroke:#2FA4E7;stroke-width:1.0417;" width="4.1667" x="529.4668" y="186.4271"/><rect fill="none" height="2.0833" style="stroke:#2FA4E7;stroke-width:1.0417;" width="4.1667" x="529.4668" y="190.5937"/><text fill="#2FA4E7" font-family="Verdana" font-size="12.5" lengthAdjust="spacing" textLength="121.4355" x="399.6979" y="216.7799">protoc_echo_plugin</text></g><!--entity more_protobuf--><g class="entity" data-entity="more_protobuf" data-source-line="16" data-uid="ent0010" id="entity_more_protobuf"><rect fill="none" height="56.2174" rx="4.1667" ry="4.1667" style="stroke:#2FA4E7;stroke-width:1.0417;" width="64.0035" x="588.8333" y="179.1354"/><rect fill="none" height="10.4167" style="stroke:#2FA4E7;stroke-width:1.0417;" width="15.625" x="632.0035" y="184.3437"/><rect fill="none" height="2.0833" style="stroke:#2FA4E7;stroke-width:1.0417;" width="4.1667" x="629.9202" y="186.4271"/><rect fill="none" height="2.0833" style="stroke:#2FA4E7;stroke-width:1.0417;" width="4.1667" x="629.9202" y="190.5937"/><text fill="#2FA4E7" font-family="Verdana" font-size="12.5" lengthAdjust="spacing" textLength="11.9202" x="609.6667" y="216.7799">...</text></g><!--entity ble--><g class="entity" data-entity="ble" data-source-line="21" data-uid="ent0012" id="entity_ble"><rect fill="none" height="56.2174" rx="4.1667" ry="4.1667" style="stroke:#2FA4E7;stroke-width:1.0417;" width="71.1812" x="711.2813" y="60.4167"/><rect fill="none" height="10.4167" style="stroke:#2FA4E7;stroke-width:1.0417;" width="15.625" x="761.6292" y="65.625"/><rect fill="none" height="2.0833" style="stroke:#2FA4E7;stroke-width:1.0417;" width="4.1667" x="759.5458" y="67.7083"/><rect fill="none" height="2.0833" style="stroke:#2FA4E7;stroke-width:1.0417;" width="4.1667" x="759.5458" y="71.875"/><text fill="#2FA4E7" font-family="Verdana" font-size="12.5" lengthAdjust="spacing" textLength="19.0979" x="732.1146" y="98.0611">ble</text></g><!--entity cucumber--><g class="entity" data-entity="cucumber" data-source-line="22" data-uid="ent0013" id="entity_cucumber"><rect fill="none" height="56.2174" rx="4.1667" ry="4.1667" style="stroke:#2FA4E7;stroke-width:1.0417;" width="114.6139" x="818.7396" y="60.4167"/><rect fill="none" height="10.4167" style="stroke:#2FA4E7;stroke-width:1.0417;" width="15.625" x="912.5201" y="65.625"/><rect fill="none" height="2.0833" style="stroke:#2FA4E7;stroke-width:1.0417;" width="4.1667" x="910.4368" y="67.7083"/><rect fill="none" height="2.0833" style="stroke:#2FA4E7;stroke-width:1.0417;" width="4.1667" x="910.4368" y="71.875"/><text fill="#2FA4E7" font-family="Verdana" font-size="12.5" lengthAdjust="spacing" textLength="62.5305" x="839.5729" y="98.0611">cucumber</text></g><!--entity network--><g class="entity" data-entity="network" data-source-line="23" data-uid="ent0014" id="entity_network"><rect fill="none" height="56.2174" rx="4.1667" ry="4.1667" style="stroke:#2FA4E7;stroke-width:1.0417;" width="102.8463" x="969.4063" y="60.4167"/><rect fill="none" height="10.4167" style="stroke:#2FA4E7;stroke-width:1.0417;" width="15.625" x="1051.4192" y="65.625"/><rect fill="none" height="2.0833" style="stroke:#2FA4E7;stroke-width:1.0417;" width="4.1667" x="1049.3359" y="67.7083"/><rect fill="none" height="2.0833" style="stroke:#2FA4E7;stroke-width:1.0417;" width="4.1667" x="1049.3359" y="71.875"/><text fill="#2FA4E7" font-family="Verdana" font-size="12.5" lengthAdjust="spacing" textLength="50.7629" x="990.2396" y="98.0611">network</text></g><!--entity tracer--><g class="entity" data-entity="tracer" data-source-line="24" data-uid="ent0015" id="entity_tracer"><rect fill="none" height="56.2174" rx="4.1667" ry="4.1667" style="stroke:#2FA4E7;stroke-width:1.0417;" width="89.4857" x="711.5104" y="179.1354"/><rect fill="none" height="10.4167" style="stroke:#2FA4E7;stroke-width:1.0417;" width="15.625" x="780.1628" y="184.3437"/><rect fill="none" height="2.0833" style="stroke:#2FA4E7;stroke-width:1.0417;" width="4.1667" x="778.0794" y="186.4271"/><rect fill="none" height="2.0833" style="stroke:#2FA4E7;stroke-width:1.0417;" width="4.1667" x="778.0794" y="190.5937"/><text fill="#2FA4E7" font-family="Verdana" font-size="12.5" lengthAdjust="spacing" textLength="37.4023" x="732.3438" y="216.7799">tracer</text></g><!--entity util--><g class="entity" data-entity="util" data-source-line="25" data-uid="ent0016" id="entity_util"><rect fill="none" height="56.2174" rx="4.1667" ry="4.1667" style="stroke:#2FA4E7;stroke-width:1.0417;" width="71.8526" x="836.9896" y="179.1354"/><rect fill="none" height="10.4167" style="stroke:#2FA4E7;stroke-width:1.0417;" width="15.625" x="888.0089" y="184.3437"/><rect fill="none" height="2.0833" style="stroke:#2FA4E7;stroke-width:1.0417;" width="4.1667" x="885.9255" y="186.4271"/><rect fill="none" height="2.0833" style="stroke:#2FA4E7;stroke-width:1.0417;" width="4.1667" x="885.9255" y="190.5937"/><text fill="#2FA4E7" font-family="Verdana" font-size="12.5" lengthAdjust="spacing" textLength="19.7693" x="857.8229" y="216.7799">util</text></g><!--entity more_services--><g class="entity" data-entity="more_services" data-source-line="27" data-uid="ent0017" id="entity_more_services"><rect fill="none" height="56.2174" rx="4.1667" ry="4.1667" style="stroke:#2FA4E7;stroke-width:1.0417;" width="64.0035" x="945.0833" y="179.1354"/><rect fill="none" height="10.4167" style="stroke:#2FA4E7;stroke-width:1.0417;" width="15.625" x="988.2535" y="184.3437"/><rect fill="none" height="2.0833" style="stroke:#2FA4E7;stroke-width:1.0417;" width="4.1667" x="986.1702" y="186.4271"/><rect fill="none" height="2.0833" style="stroke:#2FA4E7;stroke-width:1.0417;" width="4.1667" x="986.1702" y="190.5937"/><text fill="#2FA4E7" font-family="Verdana" font-size="12.5" lengthAdjust="spacing" textLength="11.9202" x="965.9167" y="216.7799">...</text></g><!--entity interfaces--><g class="entity" data-entity="interfaces" data-source-line="32" data-uid="ent0019" id="entity_interfaces"><rect fill="none" height="56.2174" rx="4.1667" ry="4.1667" style="stroke:#2FA4E7;stroke-width:1.0417;" width="114.3453" x="35.5313" y="320.7708"/><rect fill="none" height="10.4167" style="stroke:#2FA4E7;stroke-width:1.0417;" width="15.625" x="129.0432" y="325.9792"/><rect fill="none" height="2.0833" style="stroke:#2FA4E7;stroke-width:1.0417;" width="4.1667" x="126.9599" y="328.0625"/><rect fill="none" height="2.0833" style="stroke:#2FA4E7;stroke-width:1.0417;" width="4.1667" x="126.9599" y="332.2292"/><text fill="#2FA4E7" font-family="Verdana" font-size="12.5" lengthAdjust="spacing" textLength="62.262" x="56.3646" y="358.4153">interfaces</text></g><!--entity synchronous_interfaces--><g class="entity" data-entity="synchronous_interfaces" data-source-line="33" data-uid="ent0020" id="entity_synchronous_interfaces"><rect fill="none" height="56.2174" rx="4.1667" ry="4.1667" style="stroke:#2FA4E7;stroke-width:1.0417;" width="200.0142" x="186.4479" y="320.7708"/><rect fill="none" height="10.4167" style="stroke:#2FA4E7;stroke-width:1.0417;" width="15.625" x="365.6288" y="325.9792"/><rect fill="none" height="2.0833" style="stroke:#2FA4E7;stroke-width:1.0417;" width="4.1667" x="363.5455" y="328.0625"/><rect fill="none" height="2.0833" style="stroke:#2FA4E7;stroke-width:1.0417;" width="4.1667" x="363.5455" y="332.2292"/><text fill="#2FA4E7" font-family="Verdana" font-size="12.5" lengthAdjust="spacing" textLength="147.9309" x="207.2813" y="358.4153">synchronous_interfaces</text></g><!--entity more_hal--><g class="entity" data-entity="more_hal" data-source-line="35" data-uid="ent0021" id="entity_more_hal"><rect fill="none" height="56.2174" rx="4.1667" ry="4.1667" style="stroke:#2FA4E7;stroke-width:1.0417;" width="64.0035" x="60.7083" y="439.4896"/><rect fill="none" height="10.4167" style="stroke:#2FA4E7;stroke-width:1.0417;" width="15.625" x="103.8785" y="444.6979"/><rect fill="none" height="2.0833" style="stroke:#2FA4E7;stroke-width:1.0417;" width="4.1667" x="101.7952" y="446.7813"/><rect fill="none" height="2.0833" style="stroke:#2FA4E7;stroke-width:1.0417;" width="4.1667" x="101.7952" y="450.9479"/><text fill="#2FA4E7" font-family="Verdana" font-size="12.5" lengthAdjust="spacing" textLength="11.9202" x="81.5417" y="477.134">...</text></g><!--entity event--><g class="entity" data-entity="event" data-source-line="40" data-uid="ent0023" id="entity_event"><rect fill="none" height="56.2174" rx="4.1667" ry="4.1667" style="stroke:#2FA4E7;stroke-width:1.0417;" width="87.6851" x="444.6979" y="320.7708"/><rect fill="none" height="10.4167" style="stroke:#2FA4E7;stroke-width:1.0417;" width="15.625" x="511.5497" y="325.9792"/><rect fill="none" height="2.0833" style="stroke:#2FA4E7;stroke-width:1.0417;" width="4.1667" x="509.4664" y="328.0625"/><rect fill="none" height="2.0833" style="stroke:#2FA4E7;stroke-width:1.0417;" width="4.1667" x="509.4664" y="332.2292"/><text fill="#2FA4E7" font-family="Verdana" font-size="12.5" lengthAdjust="spacing" textLength="35.6018" x="465.5313" y="358.4153">event</text></g><!--entity stream--><g class="entity" data-entity="stream" data-source-line="41" data-uid="ent0024" id="entity_stream"><rect fill="none" height="56.2174" rx="4.1667" ry="4.1667" style="stroke:#2FA4E7;stroke-width:1.0417;" width="96.1629" x="568.5833" y="320.7708"/><rect fill="none" height="10.4167" style="stroke:#2FA4E7;stroke-width:1.0417;" width="15.625" x="643.9129" y="325.9792"/><rect fill="none" height="2.0833" style="stroke:#2FA4E7;stroke-width:1.0417;" width="4.1667" x="641.8296" y="328.0625"/><rect fill="none" height="2.0833" style="stroke:#2FA4E7;stroke-width:1.0417;" width="4.1667" x="641.8296" y="332.2292"/><text fill="#2FA4E7" font-family="Verdana" font-size="12.5" lengthAdjust="spacing" textLength="44.0796" x="589.4167" y="358.4153">stream</text></g><!--entity syntax--><g class="entity" data-entity="syntax" data-source-line="42" data-uid="ent0025" id="entity_syntax"><rect fill="none" height="56.2174" rx="4.1667" ry="4.1667" style="stroke:#2FA4E7;stroke-width:1.0417;" width="93.8741" x="444.7292" y="439.4896"/><rect fill="none" height="10.4167" style="stroke:#2FA4E7;stroke-width:1.0417;" width="15.625" x="517.7699" y="444.6979"/><rect fill="none" height="2.0833" style="stroke:#2FA4E7;stroke-width:1.0417;" width="4.1667" x="515.6866" y="446.7813"/><rect fill="none" height="2.0833" style="stroke:#2FA4E7;stroke-width:1.0417;" width="4.1667" x="515.6866" y="450.9479"/><text fill="#2FA4E7" font-family="Verdana" font-size="12.5" lengthAdjust="spacing" textLength="41.7908" x="465.5625" y="477.134">syntax</text></g><!--entity timer--><g class="entity" data-entity="timer" data-source-line="43" data-uid="ent0026" id="entity_timer"><rect fill="none" height="56.2174" rx="4.1667" ry="4.1667" style="stroke:#2FA4E7;stroke-width:1.0417;" width="85.4635" x="574.9792" y="439.4896"/><rect fill="none" height="10.4167" style="stroke:#2FA4E7;stroke-width:1.0417;" width="15.625" x="639.6093" y="444.6979"/><rect fill="none" height="2.0833" style="stroke:#2FA4E7;stroke-width:1.0417;" width="4.1667" x="637.526" y="446.7813"/><rect fill="none" height="2.0833" style="stroke:#2FA4E7;stroke-width:1.0417;" width="4.1667" x="637.526" y="450.9479"/><text fill="#2FA4E7" font-family="Verdana" font-size="12.5" lengthAdjust="spacing" textLength="33.3801" x="595.8125" y="477.134">timer</text></g><!--SRC=[bP9HQiCm38RVUmhl0Ck5nZ2EgYIcjcHakTiOlVlYm085fH0z6Dk_B7twyPikcD41IaiOw9sRfaXukRWrIe1RcD6rCakuellTRdi0vyA4f6variIhAeRO2_YnnMJBcGNzV_6FFQ77C0px-NFRFPwPYh3os2OJ2c7XWsiFJ9KJMhIz9FWjgwGsHpfYtfkVXAuezmXORITDA6ZGycZQHwXVB3T3KGbWFcaQqz5GEzp9ePQGp7aYASgqWbH3h3y4Yp1ng_vbueRMMvoaYZH9i3_7VLqj91KCsMRLy6tP7FDhbnz_]--></g></svg>