<?xml version="1.0" encoding="us-ascii" standalone="no"?><svg xmlns="http://www.w3.org/2000/svg" xmlns:xlink="http://www.w3.org/1999/xlink" contentStyleType="text/css" height="480.2083px" preserveAspectRatio="none" style="width:927px;height:480px;" version="1.1" viewBox="0 0 927 480" width="927.0833px" zoomAndPan="magnify"><defs><linearGradient id="gabcusa2z92qi0" x1="50%" x2="50%" y1="0%" y2="100%"><stop offset="0%" stop-color="#2FA4E7"/><stop offset="100%" stop-color="#2683B9"/></linearGradient></defs><g><!--class SharedOwnedObserver--><g id="elem_SharedOwnedObserver"><rect codeLine="3" fill="none" height="193.3675" id="SharedOwnedObserver" rx="4.1667" ry="4.1667" style="stroke:#2FA4E7;stroke-width:1.0416666666666667;" width="269.7917" x="547.9167" y="17.7083"/><rect fill="url(#gabcusa2z92qi0)" height="34.1715" rx="4.1667" ry="4.1667" style="stroke:url(#gabcusa2z92qi0);stroke-width:1.0416666666666667;" width="269.7917" x="547.9167" y="17.7083"/><rect fill="url(#gabcusa2z92qi0)" height="4.1667" style="stroke:url(#gabcusa2z92qi0);stroke-width:1.0416666666666667;" width="269.7917" x="547.9167" y="47.7132"/><rect codeLine="3" fill="none" height="193.3675" id="SharedOwnedObserver" rx="4.1667" ry="4.1667" style="stroke:#2FA4E7;stroke-width:1.0416666666666667;" width="269.7917" x="547.9167" y="17.7083"/><ellipse cx="604.1667" cy="34.7941" fill="none" rx="10.4167" ry="10.4167" style="stroke:#2683B9;stroke-width:1.0416666666666667;"/><path d="M606.071,39.2212 Q605.6478,39.4328 605.1758,39.5467 Q604.7038,39.6606 604.1992,39.6606 Q602.3438,39.6606 601.3672,38.4562 Q600.4069,37.2355 600.4069,34.9406 Q600.4069,32.6294 601.3672,31.425 Q602.3438,30.2043 604.1992,30.2043 Q604.7038,30.2043 605.1758,30.3182 Q605.6641,30.4159 606.071,30.6437 L606.071,32.6457 Q605.6152,32.2225 605.1758,32.0272 Q604.7363,31.8156 604.2806,31.8156 Q603.2878,31.8156 602.7832,32.6131 Q602.2786,33.3944 602.2786,34.9406 Q602.2786,36.4705 602.7832,37.2518 Q603.2878,38.033 604.2806,38.033 Q604.7363,38.033 605.1758,37.8377 Q605.6152,37.6424 606.071,37.2192 L606.071,39.2212 Z " fill="#2FA4E7"/><text fill="#343A40" font-family="Verdana" font-size="11.4583" lengthAdjust="spacing" textLength="138.5417" x="629.1667" y="38.7609">SharedOwnedObserver</text><line style="stroke:#2FA4E7;stroke-width:1.0416666666666667;" x1="548.9583" x2="816.6667" y1="51.8799" y2="51.8799"/><rect fill="none" height="6.25" style="stroke:#2683B9;stroke-width:1.0416666666666667;" width="6.25" x="556.25" y="66.3615"/><text fill="#343A40" font-family="Verdana" font-size="11.4583" lengthAdjust="spacing" textLength="183.3333" x="572.9167" y="71.8908">SharedOwningSubject* subject</text><line style="stroke:#2FA4E7;stroke-width:1.0416666666666667;" x1="548.9583" x2="816.6667" y1="83.9681" y2="83.9681"/><ellipse cx="559.375" cy="101.5747" fill="none" rx="3.125" ry="3.125" style="stroke:#2683B9;stroke-width:1.0416666666666667;"/><text fill="#343A40" font-family="Verdana" font-size="11.4583" lengthAdjust="spacing" textLength="135.4167" x="572.9167" y="103.979">bool IsAttached() const</text><ellipse cx="559.375" cy="125.3296" fill="none" rx="3.125" ry="3.125" style="stroke:#2683B9;stroke-width:1.0416666666666667;"/><text fill="#343A40" font-family="Verdana" font-size="11.4583" lengthAdjust="spacing" textLength="233.3333" x="572.9167" y="127.7339">SharedOwningSubject&amp; Subject() const</text><ellipse cx="559.375" cy="149.0845" fill="none" rx="3.125" ry="3.125" style="stroke:#2683B9;stroke-width:1.0416666666666667;"/><text fill="#343A40" font-family="Verdana" font-size="11.4583" lengthAdjust="spacing" textLength="77.0833" x="572.9167" y="151.4887">void Detach()</text><ellipse cx="559.375" cy="172.8394" fill="none" rx="3.125" ry="3.125" style="stroke:#2683B9;stroke-width:1.0416666666666667;"/><text fill="#343A40" font-family="Verdana" font-size="11.4583" font-style="italic" lengthAdjust="spacing" textLength="106.25" x="572.9167" y="175.2436">void Attached() {}</text><ellipse cx="559.375" cy="196.5942" fill="none" rx="3.125" ry="3.125" style="stroke:#2683B9;stroke-width:1.0416666666666667;"/><text fill="#343A40" font-family="Verdana" font-size="11.4583" font-style="italic" lengthAdjust="spacing" textLength="113.5417" x="572.9167" y="198.9985">void Detaching() {}</text></g><!--class SharedOwningSubject--><g id="elem_SharedOwningSubject"><rect codeLine="12" fill="none" height="193.3675" id="SharedOwningSubject" rx="4.1667" ry="4.1667" style="stroke:#2FA4E7;stroke-width:1.0416666666666667;" width="430.2083" x="17.7083" y="17.7083"/><rect fill="url(#gabcusa2z92qi0)" height="34.1715" rx="4.1667" ry="4.1667" style="stroke:url(#gabcusa2z92qi0);stroke-width:1.0416666666666667;" width="430.2083" x="17.7083" y="17.7083"/><rect fill="url(#gabcusa2z92qi0)" height="4.1667" style="stroke:url(#gabcusa2z92qi0);stroke-width:1.0416666666666667;" width="430.2083" x="17.7083" y="47.7132"/><rect codeLine="12" fill="none" height="193.3675" id="SharedOwningSubject" rx="4.1667" ry="4.1667" style="stroke:#2FA4E7;stroke-width:1.0416666666666667;" width="430.2083" x="17.7083" y="17.7083"/><ellipse cx="158.3333" cy="34.7941" fill="none" rx="10.4167" ry="10.4167" style="stroke:#2683B9;stroke-width:1.0416666666666667;"/><path d="M160.2376,39.2212 Q159.8145,39.4328 159.3424,39.5467 Q158.8704,39.6606 158.3659,39.6606 Q156.5104,39.6606 155.5339,38.4562 Q154.5736,37.2355 154.5736,34.9406 Q154.5736,32.6294 155.5339,31.425 Q156.5104,30.2043 158.3659,30.2043 Q158.8704,30.2043 159.3424,30.3182 Q159.8307,30.4159 160.2376,30.6437 L160.2376,32.6457 Q159.7819,32.2225 159.3424,32.0272 Q158.903,31.8156 158.4473,31.8156 Q157.4544,31.8156 156.9499,32.6131 Q156.4453,33.3944 156.4453,34.9406 Q156.4453,36.4705 156.9499,37.2518 Q157.4544,38.033 158.4473,38.033 Q158.903,38.033 159.3424,37.8377 Q159.7819,37.6424 160.2376,37.2192 L160.2376,39.2212 Z " fill="#2FA4E7"/><text fill="#343A40" font-family="Verdana" font-size="11.4583" lengthAdjust="spacing" textLength="130.2083" x="183.3333" y="38.7609">SharedOwningSubject</text><line style="stroke:#2FA4E7;stroke-width:1.0416666666666667;" x1="18.75" x2="446.875" y1="51.8799" y2="51.8799"/><rect fill="none" height="6.25" style="stroke:#2683B9;stroke-width:1.0416666666666667;" width="6.25" x="26.0417" y="66.3615"/><text fill="#343A40" font-family="Verdana" font-size="11.4583" lengthAdjust="spacing" textLength="273.9583" x="42.7083" y="71.8908">SharedPtr&lt;SharedOwnedObserver&gt; observer</text><line style="stroke:#2FA4E7;stroke-width:1.0416666666666667;" x1="18.75" x2="446.875" y1="83.9681" y2="83.9681"/><ellipse cx="29.1667" cy="101.5747" fill="none" rx="3.125" ry="3.125" style="stroke:#2683B9;stroke-width:1.0416666666666667;"/><text fill="#343A40" font-family="Verdana" font-size="11.4583" lengthAdjust="spacing" textLength="393.75" x="42.7083" y="103.979">void Attach(const SharedPtr&lt;SharedOwnedObserver&gt;&amp; observer)</text><ellipse cx="29.1667" cy="125.3296" fill="none" rx="3.125" ry="3.125" style="stroke:#2683B9;stroke-width:1.0416666666666667;"/><text fill="#343A40" font-family="Verdana" font-size="11.4583" lengthAdjust="spacing" textLength="77.0833" x="42.7083" y="127.7339">void Detach()</text><ellipse cx="29.1667" cy="149.0845" fill="none" rx="3.125" ry="3.125" style="stroke:#2683B9;stroke-width:1.0416666666666667;"/><text fill="#343A40" font-family="Verdana" font-size="11.4583" lengthAdjust="spacing" textLength="135.4167" x="42.7083" y="151.4887">bool IsAttached() const</text><ellipse cx="29.1667" cy="172.8394" fill="none" rx="3.125" ry="3.125" style="stroke:#2683B9;stroke-width:1.0416666666666667;"/><text fill="#343A40" font-family="Verdana" font-size="11.4583" lengthAdjust="spacing" textLength="253.125" x="42.7083" y="175.2436">SharedOwnedObserver&amp; Observer() const</text><ellipse cx="29.1667" cy="196.5942" fill="none" rx="3.125" ry="3.125" style="stroke:#2683B9;stroke-width:1.0416666666666667;"/><text fill="#343A40" font-family="Verdana" font-size="11.4583" lengthAdjust="spacing" textLength="337.5" x="42.7083" y="198.9985">SharedPtr&lt;SharedOwnedObserver&gt; ObserverPtr() const</text></g><!--class ConnectionObserver--><g id="elem_ConnectionObserver"><rect codeLine="21" fill="none" height="145.8577" id="ConnectionObserver" rx="4.1667" ry="4.1667" style="stroke:#2FA4E7;stroke-width:1.0416666666666667;" width="457.2917" x="457.2917" y="298.375"/><rect fill="url(#gabcusa2z92qi0)" height="34.1715" rx="4.1667" ry="4.1667" style="stroke:url(#gabcusa2z92qi0);stroke-width:1.0416666666666667;" width="457.2917" x="457.2917" y="298.375"/><rect fill="url(#gabcusa2z92qi0)" height="4.1667" style="stroke:url(#gabcusa2z92qi0);stroke-width:1.0416666666666667;" width="457.2917" x="457.2917" y="328.3799"/><rect codeLine="21" fill="none" height="145.8577" id="ConnectionObserver" rx="4.1667" ry="4.1667" style="stroke:#2FA4E7;stroke-width:1.0416666666666667;" width="457.2917" x="457.2917" y="298.375"/><ellipse cx="616.1458" cy="315.4608" fill="none" rx="10.4167" ry="10.4167" style="stroke:#2683B9;stroke-width:1.0416666666666667;"/><path d="M618.0501,319.8879 Q617.627,320.0994 617.1549,320.2134 Q616.6829,320.3273 616.1784,320.3273 Q614.3229,320.3273 613.3464,319.1229 Q612.3861,317.9022 612.3861,315.6073 Q612.3861,313.2961 613.3464,312.0916 Q614.3229,310.8709 616.1784,310.8709 Q616.6829,310.8709 617.1549,310.9849 Q617.6432,311.0825 618.0501,311.3104 L618.0501,313.3123 Q617.5944,312.8892 617.1549,312.6938 Q616.7155,312.4823 616.2598,312.4823 Q615.2669,312.4823 614.7624,313.2798 Q614.2578,314.061 614.2578,315.6073 Q614.2578,317.1372 614.7624,317.9185 Q615.2669,318.6997 616.2598,318.6997 Q616.7155,318.6997 617.1549,318.5044 Q617.5944,318.3091 618.0501,317.8859 L618.0501,319.8879 Z " fill="#2FA4E7"/><text fill="#343A40" font-family="Verdana" font-size="11.4583" lengthAdjust="spacing" textLength="120.8333" x="641.1458" y="319.4276">ConnectionObserver</text><line style="stroke:#2FA4E7;stroke-width:1.0416666666666667;" x1="458.3333" x2="913.5417" y1="332.5465" y2="332.5465"/><line style="stroke:#2FA4E7;stroke-width:1.0416666666666667;" x1="458.3333" x2="913.5417" y1="340.8799" y2="340.8799"/><ellipse cx="468.75" cy="358.4865" fill="none" rx="3.125" ry="3.125" style="stroke:#2683B9;stroke-width:1.0416666666666667;"/><text fill="#343A40" font-family="Verdana" font-size="11.4583" font-style="italic" lengthAdjust="spacing" textLength="420.8333" x="482.2917" y="360.8908">void SendStreamAvailable(SharedPtr&lt;StreamWriter&gt;&amp;&amp; streamWriter)</text><ellipse cx="468.75" cy="382.2414" fill="none" rx="3.125" ry="3.125" style="stroke:#2683B9;stroke-width:1.0416666666666667;"/><text fill="#343A40" font-family="Verdana" font-size="11.4583" font-style="italic" lengthAdjust="spacing" textLength="115.625" x="482.2917" y="384.6457">void DataReceived()</text><ellipse cx="468.75" cy="405.9963" fill="none" rx="3.125" ry="3.125" style="stroke:#2683B9;stroke-width:1.0416666666666667;"/><text fill="#343A40" font-family="Verdana" font-size="11.4583" font-style="italic" lengthAdjust="spacing" textLength="101.0417" x="482.2917" y="408.4005">void Close() {...}</text><ellipse cx="468.75" cy="429.7511" fill="none" rx="3.125" ry="3.125" style="stroke:#2683B9;stroke-width:1.0416666666666667;"/><text fill="#343A40" font-family="Verdana" font-size="11.4583" font-style="italic" lengthAdjust="spacing" textLength="98.9583" x="482.2917" y="432.1554">void Abort() {...}</text></g><!--class Connection--><g id="elem_Connection"><rect codeLine="28" fill="none" height="193.3675" id="Connection" rx="4.1667" ry="4.1667" style="stroke:#2FA4E7;stroke-width:1.0416666666666667;" width="384.375" x="36.4583" y="274.625"/><rect fill="url(#gabcusa2z92qi0)" height="34.1715" rx="4.1667" ry="4.1667" style="stroke:url(#gabcusa2z92qi0);stroke-width:1.0416666666666667;" width="384.375" x="36.4583" y="274.625"/><rect fill="url(#gabcusa2z92qi0)" height="4.1667" style="stroke:url(#gabcusa2z92qi0);stroke-width:1.0416666666666667;" width="384.375" x="36.4583" y="304.6299"/><rect codeLine="28" fill="none" height="193.3675" id="Connection" rx="4.1667" ry="4.1667" style="stroke:#2FA4E7;stroke-width:1.0416666666666667;" width="384.375" x="36.4583" y="274.625"/><ellipse cx="186.4583" cy="291.7108" fill="none" rx="10.4167" ry="10.4167" style="stroke:#2683B9;stroke-width:1.0416666666666667;"/><path d="M188.3626,296.1379 Q187.9395,296.3494 187.4674,296.4634 Q186.9954,296.5773 186.4909,296.5773 Q184.6354,296.5773 183.6589,295.3729 Q182.6986,294.1522 182.6986,291.8573 Q182.6986,289.5461 183.6589,288.3416 Q184.6354,287.1209 186.4909,287.1209 Q186.9954,287.1209 187.4674,287.2349 Q187.9557,287.3325 188.3626,287.5604 L188.3626,289.5623 Q187.9069,289.1392 187.4674,288.9438 Q187.028,288.7323 186.5723,288.7323 Q185.5794,288.7323 185.0749,289.5298 Q184.5703,290.311 184.5703,291.8573 Q184.5703,293.3872 185.0749,294.1685 Q185.5794,294.9497 186.5723,294.9497 Q187.028,294.9497 187.4674,294.7544 Q187.9069,294.5591 188.3626,294.1359 L188.3626,296.1379 Z " fill="#2FA4E7"/><text fill="#343A40" font-family="Verdana" font-size="11.4583" lengthAdjust="spacing" textLength="65.625" x="211.4583" y="295.6776">Connection</text><line style="stroke:#2FA4E7;stroke-width:1.0416666666666667;" x1="37.5" x2="419.7917" y1="308.7965" y2="308.7965"/><line style="stroke:#2FA4E7;stroke-width:1.0416666666666667;" x1="37.5" x2="419.7917" y1="317.1299" y2="317.1299"/><ellipse cx="47.9167" cy="334.7365" fill="none" rx="3.125" ry="3.125" style="stroke:#2683B9;stroke-width:1.0416666666666667;"/><text fill="#343A40" font-family="Verdana" font-size="11.4583" font-style="italic" lengthAdjust="spacing" textLength="276.0417" x="61.4583" y="337.1408">void RequestSendStream(std::size_t sendSize)</text><ellipse cx="47.9167" cy="358.4914" fill="none" rx="3.125" ry="3.125" style="stroke:#2683B9;stroke-width:1.0416666666666667;"/><text fill="#343A40" font-family="Verdana" font-size="11.4583" font-style="italic" lengthAdjust="spacing" textLength="230.2083" x="61.4583" y="360.8957">std::size_t MaxSendStreamSize() const</text><ellipse cx="47.9167" cy="382.2463" fill="none" rx="3.125" ry="3.125" style="stroke:#2683B9;stroke-width:1.0416666666666667;"/><text fill="#343A40" font-family="Verdana" font-size="11.4583" font-style="italic" lengthAdjust="spacing" textLength="347.9167" x="61.4583" y="384.6505">SharedPtr&lt;StreamReaderWithRewinding&gt; ReceiveStream()</text><ellipse cx="47.9167" cy="406.0011" fill="none" rx="3.125" ry="3.125" style="stroke:#2683B9;stroke-width:1.0416666666666667;"/><text fill="#343A40" font-family="Verdana" font-size="11.4583" font-style="italic" lengthAdjust="spacing" textLength="108.3333" x="61.4583" y="408.4054">void AckReceived()</text><ellipse cx="47.9167" cy="429.756" fill="none" rx="3.125" ry="3.125" style="stroke:#2683B9;stroke-width:1.0416666666666667;"/><text fill="#343A40" font-family="Verdana" font-size="11.4583" font-style="italic" lengthAdjust="spacing" textLength="137.5" x="61.4583" y="432.1603">void CloseAndDestroy()</text><ellipse cx="47.9167" cy="453.5109" fill="none" rx="3.125" ry="3.125" style="stroke:#2683B9;stroke-width:1.0416666666666667;"/><text fill="#343A40" font-family="Verdana" font-size="11.4583" font-style="italic" lengthAdjust="spacing" textLength="135.4167" x="61.4583" y="455.9152">void AbortAndDestroy()</text></g><!--reverse link SharedOwnedObserver to ConnectionObserver--><g id="link_SharedOwnedObserver_ConnectionObserver"><path codeLine="37" d="M684.25,232.9792 C684.5313,255.2396 684.8021,277.8958 685.0521,298.2188 " fill="none" id="SharedOwnedObserver-backto-ConnectionObserver" style="stroke:#2FA4E7;stroke-width:3.125;"/><polygon fill="none" points="676.9583,233.375,683.9896,212.4583,691.5313,233.1979,676.9583,233.375" style="stroke:#2FA4E7;stroke-width:3.125;"/></g><!--reverse link SharedOwningSubject to Connection--><g id="link_SharedOwningSubject_Connection"><path codeLine="38" d="M230.8958,232.9792 C230.6667,246.8438 230.4375,260.8646 230.2188,274.375 " fill="none" id="SharedOwningSubject-backto-Connection" style="stroke:#2FA4E7;stroke-width:3.125;"/><polygon fill="none" points="223.6146,233.1667,231.2396,212.4583,238.1979,233.4063,223.6146,233.1667" style="stroke:#2FA4E7;stroke-width:3.125;"/></g><!--link SharedOwningSubject to SharedOwnedObserver--><g id="link_SharedOwningSubject_SharedOwnedObserver"><path codeLine="39" d="M448.2604,114.3958 C482.125,114.3958 516.2813,114.3958 547.6458,114.3958 " fill="none" id="SharedOwningSubject-SharedOwnedObserver" style="stroke:#2FA4E7;stroke-width:3.125;"/><polygon fill="#343A40" points="477.0833,98.7546,469.5458,96.3055,469.5458,101.2037,477.0833,98.7546" style="stroke:#343A40;stroke-width:1.0416666666666667;"/><text fill="#343A40" font-family="Verdana" font-size="12.5" lengthAdjust="spacing" textLength="33.3333" x="487.5" y="103.0819">owns</text></g><!--SRC=[ZPJ1KeCm48RlVOhrmb0T-W2TJcUOzkB1qO53ZquWgqJJP4mMgcBVNQ2qG4kg79W5llp9_sV33MMuHKZHv1AP2dHEKYYSJA2wKiciXJXZ1ldZJbMtnA8fq43PVA-lkqHh2VSs969fXjoVGggLfGuuZHVgDSwJDqp9WxQuf0ijEAon5lEdtUkI9POCIsdV0BtPohsJEiXKqmwnO6H5js0FHKFjH_rtTCz_A_P4PZ4Ir19qMvqvF1Zm6_DmNS8xQKp_ZEd_cz5DuC6nSk5ESyUg0WPZ1_cjj59LPaAh8ruwTon6nMCooBPXmOHaYKI_juRcoyO8gcFnmFQUtRsoPiGYJ54KTI1ER2MrnRfHPhEPkwN2H1iQK0wlu3OPuKUEbZgllYK-drlnZSy4jdvTbQChxOCFxBEJg4TSRbyty3p421b7in6KHRWJYbUzlOGsfNPHLqvV-lxVG4F5rvLNex-kwTMXNf1ji6E_dyLF48pqrP3l7TSptgaRI7oXO5HY3WlGEsL_0G00]--></g></svg>