<?xml version="1.0" encoding="us-ascii" standalone="no"?><svg xmlns="http://www.w3.org/2000/svg" xmlns:xlink="http://www.w3.org/1999/xlink" contentStyleType="text/css" height="601.0417px" preserveAspectRatio="none" style="width:1120px;height:601px;" version="1.1" viewBox="0 0 1120 601" width="1120.8333px" zoomAndPan="magnify"><defs/><g><!--cluster upgrade--><g id="cluster_upgrade"><path d="M20.8333,68.75 L91.6667,68.75 A6.25,6.25 0 0 1 95.8333,72.9167 L103.125,99.9674 L341.6667,99.9674 A4.1667,4.1667 0 0 1 345.8333,104.1341 L345.8333,299.9375 A4.1667,4.1667 0 0 1 341.6667,304.1042 L20.8333,304.1042 A4.1667,4.1667 0 0 1 16.6667,299.9375 L16.6667,72.9167 A4.1667,4.1667 0 0 1 20.8333,68.75 " fill="none" style="stroke:#2FA4E7;stroke-width:2.0833333333333335;"/><line style="stroke:#2FA4E7;stroke-width:2.0833333333333335;" x1="16.6667" x2="103.125" y1="99.9674" y2="99.9674"/><text fill="#2FA4E7" font-family="Verdana" font-size="12.5" font-weight="bold" lengthAdjust="spacing" textLength="62.5" x="26.0417" y="87.6444">upgrade</text></g><!--cluster protobuf--><g id="cluster_protobuf"><path d="M375,16.6667 L447.9167,16.6667 A6.25,6.25 0 0 1 452.0833,20.8333 L459.375,47.8841 L1104.1667,47.8841 A4.1667,4.1667 0 0 1 1108.3333,52.0508 L1108.3333,324.9375 A4.1667,4.1667 0 0 1 1104.1667,329.1042 L375,329.1042 A4.1667,4.1667 0 0 1 370.8333,324.9375 L370.8333,20.8333 A4.1667,4.1667 0 0 1 375,16.6667 " fill="none" style="stroke:#2FA4E7;stroke-width:2.0833333333333335;"/><line style="stroke:#2FA4E7;stroke-width:2.0833333333333335;" x1="370.8333" x2="459.375" y1="47.8841" y2="47.8841"/><text fill="#2FA4E7" font-family="Verdana" font-size="12.5" font-weight="bold" lengthAdjust="spacing" textLength="64.5833" x="380.2083" y="35.5611">protobuf</text></g><!--cluster services--><g id="cluster_services"><path d="M688.5417,68.75 L757.2917,68.75 A6.25,6.25 0 0 1 761.4583,72.9167 L768.75,99.9674 L1079.1667,99.9674 A4.1667,4.1667 0 0 1 1083.3333,104.1341 L1083.3333,299.9375 A4.1667,4.1667 0 0 1 1079.1667,304.1042 L688.5417,304.1042 A4.1667,4.1667 0 0 1 684.375,299.9375 L684.375,72.9167 A4.1667,4.1667 0 0 1 688.5417,68.75 " fill="none" style="stroke:#2FA4E7;stroke-width:2.0833333333333335;"/><line style="stroke:#2FA4E7;stroke-width:2.0833333333333335;" x1="684.375" x2="768.75" y1="99.9674" y2="99.9674"/><text fill="#2FA4E7" font-family="Verdana" font-size="12.5" font-weight="bold" lengthAdjust="spacing" textLength="60.4167" x="693.75" y="87.6444">services</text></g><!--cluster hal--><g id="cluster_hal"><path d="M25,354.1042 L56.25,354.1042 A6.25,6.25 0 0 1 60.4167,358.2708 L67.7083,385.3216 L411.4583,385.3216 A4.1667,4.1667 0 0 1 415.625,389.4883 L415.625,585.2917 A4.1667,4.1667 0 0 1 411.4583,589.4583 L25,589.4583 A4.1667,4.1667 0 0 1 20.8333,585.2917 L20.8333,358.2708 A4.1667,4.1667 0 0 1 25,354.1042 " fill="none" style="stroke:#2FA4E7;stroke-width:2.0833333333333335;"/><line style="stroke:#2FA4E7;stroke-width:2.0833333333333335;" x1="20.8333" x2="67.7083" y1="385.3216" y2="385.3216"/><text fill="#2FA4E7" font-family="Verdana" font-size="12.5" font-weight="bold" lengthAdjust="spacing" textLength="22.9167" x="30.2083" y="372.9986">hal</text></g><!--cluster infra--><g id="cluster_infra"><path d="M444.7917,354.1042 L487.5,354.1042 A6.25,6.25 0 0 1 491.6667,358.2708 L498.9583,385.3216 L693.75,385.3216 A4.1667,4.1667 0 0 1 697.9167,389.4883 L697.9167,585.2917 A4.1667,4.1667 0 0 1 693.75,589.4583 L444.7917,589.4583 A4.1667,4.1667 0 0 1 440.625,585.2917 L440.625,358.2708 A4.1667,4.1667 0 0 1 444.7917,354.1042 " fill="none" style="stroke:#2FA4E7;stroke-width:2.0833333333333335;"/><line style="stroke:#2FA4E7;stroke-width:2.0833333333333335;" x1="440.625" x2="498.9583" y1="385.3216" y2="385.3216"/><text fill="#2FA4E7" font-family="Verdana" font-size="12.5" font-weight="bold" lengthAdjust="spacing" textLength="34.375" x="450" y="372.9986">infra</text></g><!--entity bootloader--><g id="elem_bootloader"><rect fill="none" height="56.2174" rx="4.1667" ry="4.1667" style="stroke:#2FA4E7;stroke-width:1.0416666666666667;" width="123.9583" x="33.8542" y="112.5"/><rect fill="none" height="10.4167" style="stroke:#2FA4E7;stroke-width:1.0416666666666667;" width="15.625" x="136.9792" y="117.7083"/><rect fill="none" height="2.0833" style="stroke:#2FA4E7;stroke-width:1.0416666666666667;" width="4.1667" x="134.8958" y="119.7917"/><rect fill="none" height="2.0833" style="stroke:#2FA4E7;stroke-width:1.0416666666666667;" width="4.1667" x="134.8958" y="123.9583"/><text fill="#2FA4E7" font-family="Verdana" font-size="12.5" lengthAdjust="spacing" textLength="71.875" x="54.6875" y="150.1444">bootloader</text></g><!--entity pack_builder--><g id="elem_pack_builder"><rect fill="none" height="56.2174" rx="4.1667" ry="4.1667" style="stroke:#2FA4E7;stroke-width:1.0416666666666667;" width="134.375" x="194.2708" y="112.5"/><rect fill="none" height="10.4167" style="stroke:#2FA4E7;stroke-width:1.0416666666666667;" width="15.625" x="307.8125" y="117.7083"/><rect fill="none" height="2.0833" style="stroke:#2FA4E7;stroke-width:1.0416666666666667;" width="4.1667" x="305.7292" y="119.7917"/><rect fill="none" height="2.0833" style="stroke:#2FA4E7;stroke-width:1.0416666666666667;" width="4.1667" x="305.7292" y="123.9583"/><text fill="#2FA4E7" font-family="Verdana" font-size="12.5" lengthAdjust="spacing" textLength="82.2917" x="215.1042" y="150.1444">pack_builder</text></g><!--entity more_upgrade--><g id="elem_more_upgrade"><rect fill="none" height="56.2174" rx="4.1667" ry="4.1667" style="stroke:#2FA4E7;stroke-width:1.0416666666666667;" width="64.5833" x="63.5417" y="231.2187"/><rect fill="none" height="10.4167" style="stroke:#2FA4E7;stroke-width:1.0416666666666667;" width="15.625" x="107.2917" y="236.4271"/><rect fill="none" height="2.0833" style="stroke:#2FA4E7;stroke-width:1.0416666666666667;" width="4.1667" x="105.2083" y="238.5104"/><rect fill="none" height="2.0833" style="stroke:#2FA4E7;stroke-width:1.0416666666666667;" width="4.1667" x="105.2083" y="242.6771"/><text fill="#2FA4E7" font-family="Verdana" font-size="12.5" lengthAdjust="spacing" textLength="12.5" x="84.375" y="268.8632">...</text></g><!--entity echo--><g id="elem_echo"><rect fill="none" height="56.2174" rx="4.1667" ry="4.1667" style="stroke:#2FA4E7;stroke-width:1.0416666666666667;" width="84.375" x="388.0208" y="112.5"/><rect fill="none" height="10.4167" style="stroke:#2FA4E7;stroke-width:1.0416666666666667;" width="15.625" x="451.5625" y="117.7083"/><rect fill="none" height="2.0833" style="stroke:#2FA4E7;stroke-width:1.0416666666666667;" width="4.1667" x="449.4792" y="119.7917"/><rect fill="none" height="2.0833" style="stroke:#2FA4E7;stroke-width:1.0416666666666667;" width="4.1667" x="449.4792" y="123.9583"/><text fill="#2FA4E7" font-family="Verdana" font-size="12.5" lengthAdjust="spacing" textLength="32.2917" x="408.8542" y="150.1444">echo</text></g><!--entity echo_console--><g id="elem_echo_console"><rect fill="none" height="56.2174" rx="4.1667" ry="4.1667" style="stroke:#2FA4E7;stroke-width:1.0416666666666667;" width="141.6667" x="509.375" y="112.5"/><rect fill="none" height="10.4167" style="stroke:#2FA4E7;stroke-width:1.0416666666666667;" width="15.625" x="630.2083" y="117.7083"/><rect fill="none" height="2.0833" style="stroke:#2FA4E7;stroke-width:1.0416666666666667;" width="4.1667" x="628.125" y="119.7917"/><rect fill="none" height="2.0833" style="stroke:#2FA4E7;stroke-width:1.0416666666666667;" width="4.1667" x="628.125" y="123.9583"/><text fill="#2FA4E7" font-family="Verdana" font-size="12.5" lengthAdjust="spacing" textLength="89.5833" x="530.2083" y="150.1444">echo_console</text></g><!--entity protoc_echo_plugin--><g id="elem_protoc_echo_plugin"><rect fill="none" height="56.2174" rx="4.1667" ry="4.1667" style="stroke:#2FA4E7;stroke-width:1.0416666666666667;" width="179.1667" x="387.5" y="231.2187"/><rect fill="none" height="10.4167" style="stroke:#2FA4E7;stroke-width:1.0416666666666667;" width="15.625" x="545.8333" y="236.4271"/><rect fill="none" height="2.0833" style="stroke:#2FA4E7;stroke-width:1.0416666666666667;" width="4.1667" x="543.75" y="238.5104"/><rect fill="none" height="2.0833" style="stroke:#2FA4E7;stroke-width:1.0416666666666667;" width="4.1667" x="543.75" y="242.6771"/><text fill="#2FA4E7" font-family="Verdana" font-size="12.5" lengthAdjust="spacing" textLength="127.0833" x="408.3333" y="268.8632">protoc_echo_plugin</text></g><!--entity more_protobuf--><g id="elem_more_protobuf"><rect fill="none" height="56.2174" rx="4.1667" ry="4.1667" style="stroke:#2FA4E7;stroke-width:1.0416666666666667;" width="64.5833" x="603.125" y="231.2187"/><rect fill="none" height="10.4167" style="stroke:#2FA4E7;stroke-width:1.0416666666666667;" width="15.625" x="646.875" y="236.4271"/><rect fill="none" height="2.0833" style="stroke:#2FA4E7;stroke-width:1.0416666666666667;" width="4.1667" x="644.7917" y="238.5104"/><rect fill="none" height="2.0833" style="stroke:#2FA4E7;stroke-width:1.0416666666666667;" width="4.1667" x="644.7917" y="242.6771"/><text fill="#2FA4E7" font-family="Verdana" font-size="12.5" lengthAdjust="spacing" textLength="12.5" x="623.9583" y="268.8632">...</text></g><!--entity ble--><g id="elem_ble"><rect fill="none" height="56.2174" rx="4.1667" ry="4.1667" style="stroke:#2FA4E7;stroke-width:1.0416666666666667;" width="71.875" x="700.5208" y="112.5"/><rect fill="none" height="10.4167" style="stroke:#2FA4E7;stroke-width:1.0416666666666667;" width="15.625" x="751.5625" y="117.7083"/><rect fill="none" height="2.0833" style="stroke:#2FA4E7;stroke-width:1.0416666666666667;" width="4.1667" x="749.4792" y="119.7917"/><rect fill="none" height="2.0833" style="stroke:#2FA4E7;stroke-width:1.0416666666666667;" width="4.1667" x="749.4792" y="123.9583"/><text fill="#2FA4E7" font-family="Verdana" font-size="12.5" lengthAdjust="spacing" textLength="19.7917" x="721.3542" y="150.1444">ble</text></g><!--entity cucumber--><g id="elem_cucumber"><rect fill="none" height="56.2174" rx="4.1667" ry="4.1667" style="stroke:#2FA4E7;stroke-width:1.0416666666666667;" width="116.6667" x="809.375" y="112.5"/><rect fill="none" height="10.4167" style="stroke:#2FA4E7;stroke-width:1.0416666666666667;" width="15.625" x="905.2083" y="117.7083"/><rect fill="none" height="2.0833" style="stroke:#2FA4E7;stroke-width:1.0416666666666667;" width="4.1667" x="903.125" y="119.7917"/><rect fill="none" height="2.0833" style="stroke:#2FA4E7;stroke-width:1.0416666666666667;" width="4.1667" x="903.125" y="123.9583"/><text fill="#2FA4E7" font-family="Verdana" font-size="12.5" lengthAdjust="spacing" textLength="64.5833" x="830.2083" y="150.1444">cucumber</text></g><!--entity network--><g id="elem_network"><rect fill="none" height="56.2174" rx="4.1667" ry="4.1667" style="stroke:#2FA4E7;stroke-width:1.0416666666666667;" width="104.1667" x="962.5" y="112.5"/><rect fill="none" height="10.4167" style="stroke:#2FA4E7;stroke-width:1.0416666666666667;" width="15.625" x="1045.8333" y="117.7083"/><rect fill="none" height="2.0833" style="stroke:#2FA4E7;stroke-width:1.0416666666666667;" width="4.1667" x="1043.75" y="119.7917"/><rect fill="none" height="2.0833" style="stroke:#2FA4E7;stroke-width:1.0416666666666667;" width="4.1667" x="1043.75" y="123.9583"/><text fill="#2FA4E7" font-family="Verdana" font-size="12.5" lengthAdjust="spacing" textLength="52.0833" x="983.3333" y="150.1444">network</text></g><!--entity tracer--><g id="elem_tracer"><rect fill="none" height="56.2174" rx="4.1667" ry="4.1667" style="stroke:#2FA4E7;stroke-width:1.0416666666666667;" width="91.6667" x="704.1667" y="231.2187"/><rect fill="none" height="10.4167" style="stroke:#2FA4E7;stroke-width:1.0416666666666667;" width="15.625" x="775" y="236.4271"/><rect fill="none" height="2.0833" style="stroke:#2FA4E7;stroke-width:1.0416666666666667;" width="4.1667" x="772.9167" y="238.5104"/><rect fill="none" height="2.0833" style="stroke:#2FA4E7;stroke-width:1.0416666666666667;" width="4.1667" x="772.9167" y="242.6771"/><text fill="#2FA4E7" font-family="Verdana" font-size="12.5" lengthAdjust="spacing" textLength="39.5833" x="725" y="268.8632">tracer</text></g><!--entity util--><g id="elem_util"><rect fill="none" height="56.2174" rx="4.1667" ry="4.1667" style="stroke:#2FA4E7;stroke-width:1.0416666666666667;" width="71.875" x="831.7708" y="231.2187"/><rect fill="none" height="10.4167" style="stroke:#2FA4E7;stroke-width:1.0416666666666667;" width="15.625" x="882.8125" y="236.4271"/><rect fill="none" height="2.0833" style="stroke:#2FA4E7;stroke-width:1.0416666666666667;" width="4.1667" x="880.7292" y="238.5104"/><rect fill="none" height="2.0833" style="stroke:#2FA4E7;stroke-width:1.0416666666666667;" width="4.1667" x="880.7292" y="242.6771"/><text fill="#2FA4E7" font-family="Verdana" font-size="12.5" lengthAdjust="spacing" textLength="19.7917" x="852.6042" y="268.8632">util</text></g><!--entity more_services--><g id="elem_more_services"><rect fill="none" height="56.2174" rx="4.1667" ry="4.1667" style="stroke:#2FA4E7;stroke-width:1.0416666666666667;" width="64.5833" x="939.5833" y="231.2187"/><rect fill="none" height="10.4167" style="stroke:#2FA4E7;stroke-width:1.0416666666666667;" width="15.625" x="983.3333" y="236.4271"/><rect fill="none" height="2.0833" style="stroke:#2FA4E7;stroke-width:1.0416666666666667;" width="4.1667" x="981.25" y="238.5104"/><rect fill="none" height="2.0833" style="stroke:#2FA4E7;stroke-width:1.0416666666666667;" width="4.1667" x="981.25" y="242.6771"/><text fill="#2FA4E7" font-family="Verdana" font-size="12.5" lengthAdjust="spacing" textLength="12.5" x="960.4167" y="268.8632">...</text></g><!--entity interfaces--><g id="elem_interfaces"><rect fill="none" height="56.2174" rx="4.1667" ry="4.1667" style="stroke:#2FA4E7;stroke-width:1.0416666666666667;" width="117.7083" x="36.9792" y="397.8542"/><rect fill="none" height="10.4167" style="stroke:#2FA4E7;stroke-width:1.0416666666666667;" width="15.625" x="133.8542" y="403.0625"/><rect fill="none" height="2.0833" style="stroke:#2FA4E7;stroke-width:1.0416666666666667;" width="4.1667" x="131.7708" y="405.1458"/><rect fill="none" height="2.0833" style="stroke:#2FA4E7;stroke-width:1.0416666666666667;" width="4.1667" x="131.7708" y="409.3125"/><text fill="#2FA4E7" font-family="Verdana" font-size="12.5" lengthAdjust="spacing" textLength="65.625" x="57.8125" y="435.4986">interfaces</text></g><!--entity synchronous_interfaces--><g id="elem_synchronous_interfaces"><rect fill="none" height="56.2174" rx="4.1667" ry="4.1667" style="stroke:#2FA4E7;stroke-width:1.0416666666666667;" width="207.2917" x="191.1458" y="397.8542"/><rect fill="none" height="10.4167" style="stroke:#2FA4E7;stroke-width:1.0416666666666667;" width="15.625" x="377.6042" y="403.0625"/><rect fill="none" height="2.0833" style="stroke:#2FA4E7;stroke-width:1.0416666666666667;" width="4.1667" x="375.5208" y="405.1458"/><rect fill="none" height="2.0833" style="stroke:#2FA4E7;stroke-width:1.0416666666666667;" width="4.1667" x="375.5208" y="409.3125"/><text fill="#2FA4E7" font-family="Verdana" font-size="12.5" lengthAdjust="spacing" textLength="155.2083" x="211.9792" y="435.4986">synchronous_interfaces</text></g><!--entity more_hal--><g id="elem_more_hal"><rect fill="none" height="56.2174" rx="4.1667" ry="4.1667" style="stroke:#2FA4E7;stroke-width:1.0416666666666667;" width="64.5833" x="63.5417" y="516.5729"/><rect fill="none" height="10.4167" style="stroke:#2FA4E7;stroke-width:1.0416666666666667;" width="15.625" x="107.2917" y="521.7813"/><rect fill="none" height="2.0833" style="stroke:#2FA4E7;stroke-width:1.0416666666666667;" width="4.1667" x="105.2083" y="523.8646"/><rect fill="none" height="2.0833" style="stroke:#2FA4E7;stroke-width:1.0416666666666667;" width="4.1667" x="105.2083" y="528.0313"/><text fill="#2FA4E7" font-family="Verdana" font-size="12.5" lengthAdjust="spacing" textLength="12.5" x="84.375" y="554.2174">...</text></g><!--entity event--><g id="elem_event"><rect fill="none" height="56.2174" rx="4.1667" ry="4.1667" style="stroke:#2FA4E7;stroke-width:1.0416666666666667;" width="88.5417" x="457.8125" y="397.8542"/><rect fill="none" height="10.4167" style="stroke:#2FA4E7;stroke-width:1.0416666666666667;" width="15.625" x="525.5208" y="403.0625"/><rect fill="none" height="2.0833" style="stroke:#2FA4E7;stroke-width:1.0416666666666667;" width="4.1667" x="523.4375" y="405.1458"/><rect fill="none" height="2.0833" style="stroke:#2FA4E7;stroke-width:1.0416666666666667;" width="4.1667" x="523.4375" y="409.3125"/><text fill="#2FA4E7" font-family="Verdana" font-size="12.5" lengthAdjust="spacing" textLength="36.4583" x="478.6458" y="435.4986">event</text></g><!--entity stream--><g id="elem_stream"><rect fill="none" height="56.2174" rx="4.1667" ry="4.1667" style="stroke:#2FA4E7;stroke-width:1.0416666666666667;" width="97.9167" x="583.3333" y="397.8542"/><rect fill="none" height="10.4167" style="stroke:#2FA4E7;stroke-width:1.0416666666666667;" width="15.625" x="660.4167" y="403.0625"/><rect fill="none" height="2.0833" style="stroke:#2FA4E7;stroke-width:1.0416666666666667;" width="4.1667" x="658.3333" y="405.1458"/><rect fill="none" height="2.0833" style="stroke:#2FA4E7;stroke-width:1.0416666666666667;" width="4.1667" x="658.3333" y="409.3125"/><text fill="#2FA4E7" font-family="Verdana" font-size="12.5" lengthAdjust="spacing" textLength="45.8333" x="604.1667" y="435.4986">stream</text></g><!--entity syntax--><g id="elem_syntax"><rect fill="none" height="56.2174" rx="4.1667" ry="4.1667" style="stroke:#2FA4E7;stroke-width:1.0416666666666667;" width="93.75" x="457.2917" y="516.5729"/><rect fill="none" height="10.4167" style="stroke:#2FA4E7;stroke-width:1.0416666666666667;" width="15.625" x="530.2083" y="521.7813"/><rect fill="none" height="2.0833" style="stroke:#2FA4E7;stroke-width:1.0416666666666667;" width="4.1667" x="528.125" y="523.8646"/><rect fill="none" height="2.0833" style="stroke:#2FA4E7;stroke-width:1.0416666666666667;" width="4.1667" x="528.125" y="528.0313"/><text fill="#2FA4E7" font-family="Verdana" font-size="12.5" lengthAdjust="spacing" textLength="41.6667" x="478.125" y="554.2174">syntax</text></g><!--entity timer--><g id="elem_timer"><rect fill="none" height="56.2174" rx="4.1667" ry="4.1667" style="stroke:#2FA4E7;stroke-width:1.0416666666666667;" width="85.4167" x="587.5" y="516.5729"/><rect fill="none" height="10.4167" style="stroke:#2FA4E7;stroke-width:1.0416666666666667;" width="15.625" x="652.0833" y="521.7813"/><rect fill="none" height="2.0833" style="stroke:#2FA4E7;stroke-width:1.0416666666666667;" width="4.1667" x="650" y="523.8646"/><rect fill="none" height="2.0833" style="stroke:#2FA4E7;stroke-width:1.0416666666666667;" width="4.1667" x="650" y="528.0313"/><text fill="#2FA4E7" font-family="Verdana" font-size="12.5" lengthAdjust="spacing" textLength="33.3333" x="608.3333" y="554.2174">timer</text></g><!--SRC=[bP9HQiCm38RVUmhl0Ck5nZ2EfYIcjcHakTielVlYG0C3fH0z65kIvU__yPikcD41IaiOw9sRfaXukRWrIe1hcD6rCaluGdVViZs0Ss52KZSoQ-ArAaQn3_1ZYyakPnRqp-4VUqEFOHZsy-UsU_ndAiBAOvjCA8I53z8Uc2edj6ZxIF1RLqbjZcGqLPHR1An7SdQkatgUSssJJLveqF9eEaketonNew8ImBpIDAOZKJlSIL5BIAQUI8eo1Tl6-akm21EtwbysRcZzYPDKaIO9zh-vhQk5f88XswmQVYoROtxjykCF]--></g></svg>