<?xml version="1.0" encoding="us-ascii" standalone="no"?><svg xmlns="http://www.w3.org/2000/svg" xmlns:xlink="http://www.w3.org/1999/xlink" contentStyleType="text/css" height="465px" preserveAspectRatio="none" style="width:657px;height:465px;background:#FFFFFF;" version="1.1" viewBox="0 0 657 465" width="657px" zoomAndPan="magnify"><defs/><g><line style="stroke:#181818;stroke-width:0.5;stroke-dasharray:5.0,5.0;" x1="160" x2="160" y1="36.2969" y2="430.4219"/><line style="stroke:#181818;stroke-width:0.5;stroke-dasharray:5.0,5.0;" x1="281" x2="281" y1="36.2969" y2="430.4219"/><line style="stroke:#181818;stroke-width:0.5;stroke-dasharray:5.0,5.0;" x1="380.5" x2="380.5" y1="36.2969" y2="430.4219"/><rect fill="#E2E2F0" height="30.2969" rx="2.5" ry="2.5" style="stroke:#181818;stroke-width:0.5;" width="54" x="133" y="5"/><text fill="#000000" font-family="sans-serif" font-size="14" lengthAdjust="spacing" textLength="40" x="140" y="24.9951">COBS</text><rect fill="#E2E2F0" height="30.2969" rx="2.5" ry="2.5" style="stroke:#181818;stroke-width:0.5;" width="54" x="133" y="429.4219"/><text fill="#000000" font-family="sans-serif" font-size="14" lengthAdjust="spacing" textLength="40" x="140" y="449.417">COBS</text><rect fill="#E2E2F0" height="30.2969" rx="2.5" ry="2.5" style="stroke:#181818;stroke-width:0.5;" width="86" x="238" y="5"/><text fill="#000000" font-family="sans-serif" font-size="14" lengthAdjust="spacing" textLength="72" x="245" y="24.9951">Windowed</text><rect fill="#E2E2F0" height="30.2969" rx="2.5" ry="2.5" style="stroke:#181818;stroke-width:0.5;" width="86" x="238" y="429.4219"/><text fill="#000000" font-family="sans-serif" font-size="14" lengthAdjust="spacing" textLength="72" x="245" y="449.417">Windowed</text><rect fill="#E2E2F0" height="30.2969" rx="2.5" ry="2.5" style="stroke:#181818;stroke-width:0.5;" width="89" x="336.5" y="5"/><text fill="#000000" font-family="sans-serif" font-size="14" lengthAdjust="spacing" textLength="75" x="343.5" y="24.9951">Application</text><rect fill="#E2E2F0" height="30.2969" rx="2.5" ry="2.5" style="stroke:#181818;stroke-width:0.5;" width="89" x="336.5" y="429.4219"/><text fill="#000000" font-family="sans-serif" font-size="14" lengthAdjust="spacing" textLength="75" x="343.5" y="449.417">Application</text><polygon fill="#181818" points="171,78.5625,161,82.5625,171,86.5625,167,82.5625" style="stroke:#181818;stroke-width:1.0;"/><line style="stroke:#181818;stroke-width:1.0;" x1="165" x2="280" y1="82.5625" y2="82.5625"/><text fill="#000000" font-family="sans-serif" font-size="13" lengthAdjust="spacing" textLength="19" x="177" y="62.3638">Init</text><text fill="#000000" font-family="sans-serif" font-size="13" lengthAdjust="spacing" textLength="56" x="177" y="77.4966">01 10 00</text><path d="M286,55.8633 L286,80.8633 L650,80.8633 L650,65.8633 L640,55.8633 L286,55.8633 " fill="#FEFFDD" style="stroke:#181818;stroke-width:0.5;"/><path d="M640,55.8633 L640,65.8633 L650,65.8633 L640,55.8633 " fill="#FEFFDD" style="stroke:#181818;stroke-width:0.5;"/><text fill="#000000" font-family="sans-serif" font-size="13" lengthAdjust="spacing" textLength="343" x="292" y="72.9302">16 bytes of window are advertised, which is 0x10 0x00</text><polygon fill="#181818" points="11,125.8281,1,129.8281,11,133.8281,7,129.8281" style="stroke:#181818;stroke-width:1.0;"/><line style="stroke:#181818;stroke-width:1.0;" x1="5" x2="159" y1="129.8281" y2="129.8281"/><text fill="#000000" font-family="sans-serif" font-size="13" lengthAdjust="spacing" textLength="116" x="17" y="124.7622">00 03 01 10 01 00</text><path d="M165,95.5625 L165,150.5625 L561,150.5625 L561,105.5625 L551,95.5625 L165,95.5625 " fill="#FEFFDD" style="stroke:#181818;stroke-width:0.5;"/><path d="M551,95.5625 L551,105.5625 L561,105.5625 L551,95.5625 " fill="#FEFFDD" style="stroke:#181818;stroke-width:0.5;"/><text fill="#000000" font-family="sans-serif" font-size="13" lengthAdjust="spacing" textLength="315" x="171" y="112.6294">The init message is wrapped right and left with 00</text><text fill="#000000" font-family="sans-serif" font-size="13" lengthAdjust="spacing" textLength="375" x="171" y="127.7622">A 03 indicates that the third byte must be replaced with 00</text><text fill="#000000" font-family="sans-serif" font-size="13" lengthAdjust="spacing" textLength="326" x="171" y="142.895">The replaced byte contained 01 pointing to the end</text><polygon fill="#181818" points="148,173.0938,158,177.0938,148,181.0938,152,177.0938" style="stroke:#181818;stroke-width:1.0;"/><line style="stroke:#181818;stroke-width:1.0;" x1="0" x2="154" y1="177.0938" y2="177.0938"/><text fill="#000000" font-family="sans-serif" font-size="13" lengthAdjust="spacing" textLength="116" x="7" y="172.0278">00 03 02 10 01 00</text><polygon fill="#181818" points="269,217.3594,279,221.3594,269,225.3594,273,221.3594" style="stroke:#181818;stroke-width:1.0;"/><line style="stroke:#181818;stroke-width:1.0;" x1="160" x2="275" y1="221.3594" y2="221.3594"/><text fill="#000000" font-family="sans-serif" font-size="13" lengthAdjust="spacing" textLength="81" x="167" y="201.1606">InitResponse</text><text fill="#000000" font-family="sans-serif" font-size="13" lengthAdjust="spacing" textLength="56" x="167" y="216.2935">02 10 00</text><polygon fill="#181818" points="292,261.625,282,265.625,292,269.625,288,265.625" style="stroke:#181818;stroke-width:1.0;"/><line style="stroke:#181818;stroke-width:1.0;" x1="286" x2="380" y1="265.625" y2="265.625"/><text fill="#000000" font-family="sans-serif" font-size="13" lengthAdjust="spacing" textLength="57" x="298" y="245.4263">Message</text><text fill="#000000" font-family="sans-serif" font-size="13" lengthAdjust="spacing" textLength="76" x="298" y="260.5591">12 34 56 78</text><polygon fill="#181818" points="171,305.8906,161,309.8906,171,313.8906,167,309.8906" style="stroke:#181818;stroke-width:1.0;"/><line style="stroke:#181818;stroke-width:1.0;" x1="165" x2="280" y1="309.8906" y2="309.8906"/><text fill="#000000" font-family="sans-serif" font-size="13" lengthAdjust="spacing" textLength="57" x="177" y="289.6919">Message</text><text fill="#000000" font-family="sans-serif" font-size="13" lengthAdjust="spacing" textLength="96" x="177" y="304.8247">03 12 34 56 78</text><polygon fill="#181818" points="11,335.0234,1,339.0234,11,343.0234,7,339.0234" style="stroke:#181818;stroke-width:1.0;"/><line style="stroke:#181818;stroke-width:1.0;" x1="5" x2="159" y1="339.0234" y2="339.0234"/><text fill="#000000" font-family="sans-serif" font-size="13" lengthAdjust="spacing" textLength="136" x="17" y="333.9575">06 03 12 34 56 78 00</text><polygon fill="#181818" points="148,364.1563,158,368.1563,148,372.1563,152,368.1563" style="stroke:#181818;stroke-width:1.0;"/><line style="stroke:#181818;stroke-width:1.0;" x1="0" x2="154" y1="368.1563" y2="368.1563"/><text fill="#000000" font-family="sans-serif" font-size="13" lengthAdjust="spacing" textLength="96" x="7" y="363.0903">03 03 07 01 00</text><polygon fill="#181818" points="269,408.4219,279,412.4219,269,416.4219,273,412.4219" style="stroke:#181818;stroke-width:1.0;"/><line style="stroke:#181818;stroke-width:1.0;" x1="160" x2="275" y1="412.4219" y2="412.4219"/><text fill="#000000" font-family="sans-serif" font-size="13" lengthAdjust="spacing" textLength="97" x="167" y="392.2231">ReleaseWindow</text><text fill="#000000" font-family="sans-serif" font-size="13" lengthAdjust="spacing" textLength="56" x="167" y="407.356">03 07 00</text><!--SRC=[TL5DQm8n4BtxAzuFg93LLekKWlNKGodOGW_r4dT7Ts1DmcRQjV- -aoYwMWgRXIHltbSMhqzlU1ZYWrtbEwemmxDZMJbJe30mPk2y45hUrZ80YWdMFq8HVeCkZy2s15jzKoiSgRf1LtDPWoFCFX7ibO9SXKGp-5IbHLASAJFC64ULue_GUqrWDO8TnMYtb0YxreQW5ZC6LaaRseZwa3hD0_D4gQwujCcZr5RqHxguhR9nxBwYOAqw51fRAjbvEacUZZEuz4uiEzsgm-3P2Rijn6TI3TKBDdoy2ZOw1yiN2hZgU4anU1T9knuTkpuXjATv24qAmjxfmCkXXfKhHXZVucw2wVs1-FBnJZZrq8Vscv_WyZ8fzmECypVzt_sI6hAH3YTPAg7DBm00]--></g></svg>