<?xml version="1.0" encoding="us-ascii" standalone="no"?><svg xmlns="http://www.w3.org/2000/svg" xmlns:xlink="http://www.w3.org/1999/xlink" contentStyleType="text/css" height="167px" preserveAspectRatio="none" style="width:213px;height:167px;background:#FFFFFF;" version="1.1" viewBox="0 0 213 167" width="213px" zoomAndPan="magnify"><defs/><g><!--entity node--><g id="elem_node"><polygon fill="#F1F1F1" points="7,17,17,7,196,7,196,140.4844,186,150.4844,7,150.4844,7,17" style="stroke:#181818;stroke-width:0.5;"/><line style="stroke:#181818;stroke-width:0.5;" x1="186" x2="196" y1="17" y2="7"/><line style="stroke:#181818;stroke-width:0.5;" x1="7" x2="186" y1="17" y2="17"/><line style="stroke:#181818;stroke-width:0.5;" x1="186" x2="186" y1="17" y2="150.4844"/><text fill="#000000" font-family="sans-serif" font-size="14" lengthAdjust="spacing" textLength="40" x="22" y="39.9951">ECHO</text><line style="stroke:#181818;stroke-width:1.0;" x1="7" x2="186" y1="43.2969" y2="43.2969"/><line style="stroke:#181818;stroke-width:1.0;" x1="186" x2="196" y1="43.2969" y2="33.2969"/><line style="stroke:#181818;stroke-width:1.0;" x1="7" x2="186" y1="45.2969" y2="45.2969"/><line style="stroke:#181818;stroke-width:1.0;" x1="186" x2="196" y1="45.2969" y2="35.2969"/><text fill="#000000" font-family="sans-serif" font-size="14" lengthAdjust="spacing" textLength="58" x="22" y="60.292">Secured</text><line style="stroke:#181818;stroke-width:1.0;stroke-dasharray:1.0,2.0;" x1="7" x2="186" y1="67.5938" y2="67.5938"/><line style="stroke:#181818;stroke-width:1.0;stroke-dasharray:1.0,2.0;" x1="186" x2="196" y1="67.5938" y2="57.5938"/><text fill="#000000" font-family="sans-serif" font-size="14" lengthAdjust="spacing" textLength="72" x="22" y="84.5889">Windowed</text><line style="stroke:#181818;stroke-width:1.0;stroke-dasharray:1.0,2.0;" x1="7" x2="186" y1="91.8906" y2="91.8906"/><line style="stroke:#181818;stroke-width:1.0;stroke-dasharray:1.0,2.0;" x1="186" x2="196" y1="91.8906" y2="81.8906"/><text fill="#000000" font-family="sans-serif" font-size="14" lengthAdjust="spacing" textLength="40" x="22" y="108.8857">COBS</text><line style="stroke:#181818;stroke-width:1.0;" x1="7" x2="186" y1="116.1875" y2="116.1875"/><line style="stroke:#181818;stroke-width:1.0;" x1="186" x2="196" y1="116.1875" y2="106.1875"/><line style="stroke:#181818;stroke-width:1.0;" x1="7" x2="186" y1="118.1875" y2="118.1875"/><line style="stroke:#181818;stroke-width:1.0;" x1="186" x2="196" y1="118.1875" y2="108.1875"/><text fill="#000000" font-family="sans-serif" font-size="14" lengthAdjust="spacing" textLength="149" x="22" y="133.1826">Serial Communication</text></g><!--SRC=[oyjFILN80n7HNAxE7lvSja305PoQN5gKciAb1mHSuPbvAVdbC9wplrCmJ55HPcAEWdD-RcvfNcPoOabcVXvNB000]--></g></svg>